<svg id="Layer_1" data-name="Layer 1" xmlns="http://www.w3.org/2000/svg" viewBox="0 0 60 60"><defs><style>.cls-1{fill:#414042;}.cls-2{fill:#fff;}.cls-3{fill:#e2344a;}</style></defs><path class="cls-1" d="M10.32,32.65H9.61V12.05a2.89,2.89,0,0,1,2.73-3h2.13a2.89,2.89,0,0,1,2.73,3v2.14h-.71V12.05a2.17,2.17,0,0,0-2-2.31H12.34a2.18,2.18,0,0,0-2,2.31Z"/><path class="cls-2" d="M44.12,46.91H15.89A7.42,7.42,0,0,1,8.62,41l-1.36-6.4H52.75L51.39,41A7.43,7.43,0,0,1,44.12,46.91Z"/><path class="cls-1" d="M44.12,47.26H15.89a7.76,7.76,0,0,1-7.62-6.17L6.82,34.25H53.19l-1.45,6.84a7.76,7.76,0,0,1-7.62,6.17ZM7.7,35l1.27,6a7.06,7.06,0,0,0,6.92,5.61H44.12A7.06,7.06,0,0,0,51,40.94l1.27-6Z"/><rect class="cls-3" x="5.36" y="33.11" width="49.28" height="2.91"/><path class="cls-1" d="M55,36.37H5V32.75H55ZM5.72,35.66H54.28V33.47H5.72Z"/><polygon class="cls-2" points="15.89 50.62 14.55 50.62 15.2 46.91 17.84 46.91 15.89 50.62"/><path class="cls-1" d="M16.1,51h-2l.78-4.43h3.53ZM15,50.26h.7l1.58-3H15.5Z"/><polygon class="cls-2" points="44.12 50.62 45.46 50.62 44.81 46.91 42.17 46.91 44.12 50.62"/><path class="cls-1" d="M45.89,51h-2l-2.33-4.43h3.53Zm-1.55-.72H45l-.53-3H42.76Z"/><path class="cls-1" d="M19.23,18.17h-4.9a.87.87,0,0,1-.64-1.45L16.19,14a.85.85,0,0,1,.65-.28.87.87,0,0,1,.64.29l2.4,2.75a.84.84,0,0,1,.14.92A.86.86,0,0,1,19.23,18.17Zm-2.4-3.76a.15.15,0,0,0-.11.05l-2.5,2.75a.14.14,0,0,0,0,.16.13.13,0,0,0,.13.08h4.9a.16.16,0,0,0,.14-.08.15.15,0,0,0,0-.16l-2.4-2.75a.15.15,0,0,0-.11-.05Z"/><rect class="cls-2" x="13.46" y="17.29" width="6.78" height="1.18"/><path class="cls-1" d="M20.59,18.83H13.1v-1.9h7.49Zm-6.77-.72h6.06v-.46H13.82Z"/><rect class="cls-2" x="36.45" y="11.09" width="14.9" height="15.06"/><path class="cls-1" d="M51.7,26.51H36.09V10.73H51.7ZM36.8,25.8H51V11.45H36.8Z"/><rect class="cls-2" x="34.69" y="9.95" width="18.06" height="1.89"/><path class="cls-1" d="M52.75,12.2H34.69a.36.36,0,0,1-.36-.36V10a.36.36,0,0,1,.72,0v1.53H52.39V10a.36.36,0,0,1,.72,0v1.89A.36.36,0,0,1,52.75,12.2Z"/><rect class="cls-2" x="36.45" y="11.09" width="14.9" height="11.48"/><path class="cls-1" d="M51.7,22.93H36.09V10.73H51.7Zm-14.9-.71H51V11.45H36.8Z"/><path class="cls-1" d="M54,9.8H33.37a.36.36,0,1,1,0-.71H54a.36.36,0,1,1,0,.71Z"/></svg>