<svg id="Layer_1" data-name="Layer 1" xmlns="http://www.w3.org/2000/svg" viewBox="0 0 60 60"><defs><style>.cls-1{fill:#e2344a;}.cls-2{fill:#414042;}.cls-3{fill:#fff;}</style></defs><path class="cls-1" d="M48,25H12a2.81,2.81,0,0,0-2.81,2.81V43.88H50.84V27.79A2.81,2.81,0,0,0,48,25Z"/><path class="cls-2" d="M51.2,44.24H8.8V27.79A3.17,3.17,0,0,1,12,24.62H48a3.17,3.17,0,0,1,3.17,3.17ZM9.52,43.53h41V27.79A2.45,2.45,0,0,0,48,25.34H12a2.45,2.45,0,0,0-2.45,2.45Z"/><rect class="cls-3" x="5.36" y="39.28" width="49.28" height="8.67"/><path class="cls-2" d="M55,48.31H5V38.92H55ZM5.72,47.59H54.28v-8H5.72Z"/><rect class="cls-3" x="5.36" y="43.61" width="49.28" height="8.67"/><path class="cls-2" d="M55,52.64H5V43.26H55ZM5.72,51.93H54.28V44H5.72Z"/><polygon class="cls-2" points="44.15 11.29 38.48 8.18 32.8 11.29 32.45 10.66 38.48 7.36 44.5 10.66 44.15 11.29"/><rect class="cls-3" x="31.3" y="9.59" width="14.34" height="8.96"/><path class="cls-2" d="M46,18.91H31V9.23H46ZM31.66,18.2H45.29V10H31.66Z"/><rect class="cls-3" x="32.62" y="10.97" width="11.7" height="6.22"/><path class="cls-2" d="M44.68,17.55H32.26V10.61H44.68ZM33,16.83H44v-5.5H33Z"/><path class="cls-3" d="M54.64,52.09v-14A2.61,2.61,0,0,0,52,35.48H49.64A2.6,2.6,0,0,0,47,38.09v14Z"/><path class="cls-2" d="M55,52.45H46.68V38.09a3,3,0,0,1,3-3H52a3,3,0,0,1,3,3Zm-7.61-.71h6.89V38.09A2.25,2.25,0,0,0,52,35.84H49.64a2.25,2.25,0,0,0-2.25,2.25Z"/><path class="cls-3" d="M13,52.09v-14a2.6,2.6,0,0,0-2.6-2.61H8a2.61,2.61,0,0,0-2.61,2.61v14Z"/><path class="cls-2" d="M13.32,52.45H5V38.09a3,3,0,0,1,3-3h2.39a3,3,0,0,1,3,3Zm-7.6-.71h6.89V38.09a2.25,2.25,0,0,0-2.25-2.25H8a2.25,2.25,0,0,0-2.25,2.25Z"/><rect class="cls-2" x="8.8" y="37.82" width="0.72" height="14.46"/><rect class="cls-2" x="5.37" y="37.46" width="7.59" height="0.72"/><rect class="cls-2" x="50.47" y="37.82" width="0.72" height="14.46"/><rect class="cls-2" x="47.04" y="37.46" width="7.59" height="0.72"/></svg>