<svg id="Layer_1" data-name="Layer 1" xmlns="http://www.w3.org/2000/svg" viewBox="0 0 696.2 393.97"><defs><style>.cls-1{fill:#fff;}.cls-2{fill:#414042;}.cls-3{fill:#e2344a;}</style></defs><rect class="cls-1" x="6.82" y="0.6" width="71.66" height="76.06" rx="3.55"/><path class="cls-2" d="M98.74,103.58H34.18A4.17,4.17,0,0,1,30,99.42V30.47a4.16,4.16,0,0,1,4.16-4.16H98.74a4.15,4.15,0,0,1,4.15,4.16v69A4.16,4.16,0,0,1,98.74,103.58ZM34.18,27.52a3,3,0,0,0-2.95,2.95v69a3,3,0,0,0,2.95,3H98.74a3,3,0,0,0,2.94-3V30.47a3,3,0,0,0-2.94-2.95Z" transform="translate(-23.8 -26.31)"/><rect class="cls-3" x="21.44" y="0.6" width="28.25" height="76.06"/><path class="cls-2" d="M74.1,103.58H44.64V26.31H74.1Zm-28.25-1.21h27V27.52h-27Z" transform="translate(-23.8 -26.31)"/><rect class="cls-2" x="20.84" y="0.6" width="1.21" height="76.06"/><rect class="cls-2" x="49.08" y="0.6" width="1.21" height="76.06"/><path class="cls-2" d="M71.26,69.64a.61.61,0,0,1-.61-.6v-7.1a.62.62,0,0,1,.61-.61.61.61,0,0,1,.6.61V69A.6.6,0,0,1,71.26,69.64Z" transform="translate(-23.8 -26.31)"/><path class="cls-2" d="M75.65,69.64a.6.6,0,0,1-.6-.6v-7.1a.61.61,0,1,1,1.21,0V69A.6.6,0,0,1,75.65,69.64Z" transform="translate(-23.8 -26.31)"/><rect class="cls-2" x="6.49" y="57.94" width="15.34" height="1.21"/><rect class="cls-2" x="6.49" y="38.58" width="15.34" height="1.21"/><rect class="cls-2" x="6.49" y="19.89" width="15.34" height="1.21"/><rect class="cls-1" x="11.62" y="56.11" width="9.6" height="2.44"/><path class="cls-2" d="M45.63,85.46H34.82V81.81H45.63ZM36,84.25h8.39V83H36Z" transform="translate(-23.8 -26.31)"/><rect class="cls-1" x="9.98" y="50.83" width="9.6" height="2.44"/><path class="cls-2" d="M44,80.18H33.18V76.54H44ZM34.39,79h8.39V77.75H34.39Z" transform="translate(-23.8 -26.31)"/><path class="cls-1" d="M41.19,41a1.61,1.61,0,1,1-1.61-1.61A1.61,1.61,0,0,1,41.19,41Z" transform="translate(-23.8 -26.31)"/><path class="cls-2" d="M39.58,43.17A2.21,2.21,0,1,1,41.79,41,2.21,2.21,0,0,1,39.58,43.17Zm0-3.21a1,1,0,1,0,1,1A1,1,0,0,0,39.58,40Z" transform="translate(-23.8 -26.31)"/><rect class="cls-1" x="9.24" y="53.38" width="9.6" height="2.44"/><path class="cls-2" d="M43.25,82.73H32.44V79.08H43.25Zm-9.6-1.21h8.4V80.29h-8.4Z" transform="translate(-23.8 -26.31)"/><path class="cls-1" d="M39.14,41.54a2.07,2.07,0,1,1-2.07-2.08A2.07,2.07,0,0,1,39.14,41.54Z" transform="translate(-23.8 -26.31)"/><path class="cls-2" d="M37.07,44.21a2.68,2.68,0,1,1,2.68-2.67A2.68,2.68,0,0,1,37.07,44.21Zm0-4.14a1.47,1.47,0,1,0,1.47,1.47A1.46,1.46,0,0,0,37.07,40.07Z" transform="translate(-23.8 -26.31)"/><path class="cls-1" d="M37.68,41.57h-4s.54,4.19,4.52,4.19,4.47-4.19,4.47-4.19Z" transform="translate(-23.8 -26.31)"/><path class="cls-2" d="M38.18,46.36a5.22,5.22,0,0,1-5.12-4.72L33,41H43.33l-.08.68A5.14,5.14,0,0,1,38.18,46.36Zm-3.76-4.19a3.84,3.84,0,0,0,3.76,3,3.77,3.77,0,0,0,3.72-3Z" transform="translate(-23.8 -26.31)"/><rect class="cls-1" x="118.92" y="26.43" width="58.47" height="25.95"/><path class="cls-2" d="M201.8,79.29H142.12V52.13H201.8Zm-58.47-1.2h57.26V53.34H143.33Z" transform="translate(-23.8 -26.31)"/><rect class="cls-3" x="117.38" y="39.51" width="27.92" height="18.25" rx="3.55"/><path class="cls-2" d="M165.55,84.68H144.74a4.16,4.16,0,0,1-4.16-4.16V69.37a4.15,4.15,0,0,1,4.16-4.15h20.81a4.16,4.16,0,0,1,4.16,4.15V80.52A4.17,4.17,0,0,1,165.55,84.68ZM144.74,66.43a3,3,0,0,0-3,2.94V80.52a3,3,0,0,0,3,3h20.81a3,3,0,0,0,2.95-3V69.37a3,3,0,0,0-2.95-2.94Z" transform="translate(-23.8 -26.31)"/><rect class="cls-3" x="150.57" y="39.51" width="27.92" height="18.25" rx="3.55"/><path class="cls-2" d="M198.74,84.68H177.93a4.17,4.17,0,0,1-4.16-4.16V69.37a4.16,4.16,0,0,1,4.16-4.15h20.81a4.16,4.16,0,0,1,4.16,4.15V80.52A4.17,4.17,0,0,1,198.74,84.68ZM177.93,66.43a3,3,0,0,0-3,2.94V80.52a3,3,0,0,0,3,3h20.81a3,3,0,0,0,2.95-3V69.37a3,3,0,0,0-2.95-2.94Z" transform="translate(-23.8 -26.31)"/><rect class="cls-1" x="111.22" y="52.38" width="73.86" height="13.33" rx="3.55"/><path class="cls-2" d="M205.34,92.62H138.58a4.17,4.17,0,0,1-4.16-4.16V82.24a4.16,4.16,0,0,1,4.16-4.15h66.76a4.15,4.15,0,0,1,4.15,4.15v6.22A4.16,4.16,0,0,1,205.34,92.62ZM138.58,79.29a3,3,0,0,0-3,2.95v6.22a3,3,0,0,0,3,3h66.76a3,3,0,0,0,2.94-3V82.24a3,3,0,0,0-2.94-2.95Z" transform="translate(-23.8 -26.31)"/><rect class="cls-1" x="111.22" y="61.46" width="73.86" height="15.2"/><path class="cls-2" d="M209.49,103.58H134.42V87.17h75.07Zm-73.86-1.21h72.65v-14H135.63Z" transform="translate(-23.8 -26.31)"/><polygon class="cls-1" points="116.28 52.38 118.92 67.21 179.59 52.38 116.28 52.38"/><path class="cls-2" d="M142.72,94.12a.6.6,0,0,1-.59-.5L139.49,78.8a.64.64,0,0,1,.13-.5.6.6,0,0,1,.46-.21h63.31a.59.59,0,0,1,.6.53.61.61,0,0,1-.45.66L142.87,94.11Zm-1.91-14.83,2.39,13.49,55.17-13.49Z" transform="translate(-23.8 -26.31)"/><rect class="cls-1" x="114.52" y="14.01" width="67.27" height="3.3"/><path class="cls-2" d="M206.2,44.22H137.72v-4.5H206.2ZM138.93,43H205V40.93H138.93Z" transform="translate(-23.8 -26.31)"/><rect class="cls-1" x="119.69" y="3.9" width="15.83" height="9.89"/><path class="cls-2" d="M159.92,40.71h-17V29.61h17ZM144.1,39.5h14.61V30.81H144.1Z" transform="translate(-23.8 -26.31)"/><rect class="cls-1" x="122.09" y="6.23" width="11.03" height="5.25"/><path class="cls-2" d="M157.52,38.4H145.29V31.94h12.23Zm-11-1.21h9.81v-4H146.5Z" transform="translate(-23.8 -26.31)"/><rect class="cls-1" x="172.77" y="3.15" width="2.97" height="10.64"/><path class="cls-2" d="M200.15,40.71H196V28.85h4.18Zm-3-1.21h1.76V30.06h-1.76Z" transform="translate(-23.8 -26.31)"/><rect class="cls-1" x="181.86" y="33.3" width="10.64" height="2.97" transform="translate(90.02 184.16) rotate(-77.86)"/><path class="cls-2" d="M188,41l-4.09-.88,2.5-11.58,4.08.88Zm-2.65-1.8,1.72.37,2-9.23L187.31,30Z" transform="translate(-23.8 -26.31)"/><rect class="cls-1" x="166.73" y="4.27" width="2.97" height="9.53"/><path class="cls-2" d="M194.11,40.71h-4.18V30h4.18Zm-3-1.21h1.76V31.18h-1.76Z" transform="translate(-23.8 -26.31)"/><rect class="cls-1" x="169.81" y="1.79" width="2.97" height="12"/><path class="cls-2" d="M197.18,40.71H193V27.49h4.17Zm-3-1.21H196V28.7h-1.75Z" transform="translate(-23.8 -26.31)"/><path class="cls-3" d="M308.27,57.25H247.48A4.74,4.74,0,0,0,242.74,62V89.13H313V62A4.74,4.74,0,0,0,308.27,57.25Z" transform="translate(-23.8 -26.31)"/><path class="cls-2" d="M313.61,89.73H242.13V62a5.35,5.35,0,0,1,5.35-5.34h60.79A5.34,5.34,0,0,1,313.61,62Zm-70.27-1.21H312.4V62a4.13,4.13,0,0,0-4.13-4.13H247.48A4.14,4.14,0,0,0,243.34,62Z" transform="translate(-23.8 -26.31)"/><rect class="cls-1" x="212.52" y="55.06" width="83.09" height="14.62"/><path class="cls-2" d="M320,96.59h-84.3V80.76H320Zm-83.09-1.21h81.88V82H236.93Z" transform="translate(-23.8 -26.31)"/><rect class="cls-1" x="212.52" y="62.37" width="83.09" height="14.62"/><path class="cls-2" d="M320,103.9h-84.3V88.07H320Zm-83.09-1.21h81.88V89.28H236.93Z" transform="translate(-23.8 -26.31)"/><polygon class="cls-2" points="277.93 7.86 268.36 2.61 258.78 7.86 258.2 6.8 268.36 1.23 278.51 6.8 277.93 7.86"/><rect class="cls-1" x="256.27" y="5" width="24.18" height="15.11"/><path class="cls-2" d="M304.86,47H279.47V30.7h25.39Zm-24.18-1.21h23V31.91h-23Z" transform="translate(-23.8 -26.31)"/><rect class="cls-1" x="258.49" y="7.33" width="19.73" height="10.49"/><path class="cls-2" d="M302.63,44.73H281.69V33h20.94ZM282.9,43.52h18.52V34.24H282.9Z" transform="translate(-23.8 -26.31)"/><path class="cls-1" d="M319.42,103V79.36A4.4,4.4,0,0,0,315,75h-4a4.39,4.39,0,0,0-4.39,4.4V103Z" transform="translate(-23.8 -26.31)"/><path class="cls-2" d="M320,103.58H306V79.36a5,5,0,0,1,5-5h4a5,5,0,0,1,5,5Zm-12.82-1.21h11.61v-23A3.79,3.79,0,0,0,315,75.57h-4a3.79,3.79,0,0,0-3.79,3.79Z" transform="translate(-23.8 -26.31)"/><path class="cls-1" d="M249.15,103V79.36a4.4,4.4,0,0,0-4.4-4.4h-4a4.4,4.4,0,0,0-4.39,4.4V103Z" transform="translate(-23.8 -26.31)"/><path class="cls-2" d="M249.75,103.58h-14V79.36a5,5,0,0,1,5-5h4a5,5,0,0,1,5,5Zm-12.82-1.21h11.62v-23a3.8,3.8,0,0,0-3.8-3.79h-4a3.79,3.79,0,0,0-3.79,3.79Z" transform="translate(-23.8 -26.31)"/><path class="cls-1" d="M242.74,78.91v0Z" transform="translate(-23.8 -26.31)"/><rect class="cls-2" x="218.33" y="52.6" width="1.21" height="24.38"/><path class="cls-1" d="M236.35,78.91h0Z" transform="translate(-23.8 -26.31)"/><rect class="cls-2" x="212.55" y="52" width="12.8" height="1.21"/><path class="cls-1" d="M313,78.91v0Z" transform="translate(-23.8 -26.31)"/><rect class="cls-2" x="288.59" y="52.6" width="1.21" height="24.38"/><path class="cls-1" d="M306.61,78.91h0Z" transform="translate(-23.8 -26.31)"/><rect class="cls-2" x="282.8" y="52" width="12.8" height="1.21"/><path class="cls-3" d="M414.81,57.25H382.74A4.74,4.74,0,0,0,378,62V89.13h41.55V62A4.74,4.74,0,0,0,414.81,57.25Z" transform="translate(-23.8 -26.31)"/><path class="cls-2" d="M420.15,89.73H377.4V62a5.34,5.34,0,0,1,5.34-5.34h32.07A5.35,5.35,0,0,1,420.15,62ZM378.6,88.52h40.34V62a4.13,4.13,0,0,0-4.13-4.13H382.74A4.14,4.14,0,0,0,378.6,62Z" transform="translate(-23.8 -26.31)"/><rect class="cls-1" x="347.78" y="55.06" width="54.37" height="14.62"/><path class="cls-2" d="M426.56,96.59H371V80.76h55.58Zm-54.37-1.21h53.16V82H372.19Z" transform="translate(-23.8 -26.31)"/><rect class="cls-1" x="347.78" y="62.37" width="54.37" height="14.62"/><path class="cls-2" d="M426.56,103.9H371V88.07h55.58Zm-54.37-1.21h53.16V89.28H372.19Z" transform="translate(-23.8 -26.31)"/><path class="cls-1" d="M426,103V79.36a4.4,4.4,0,0,0-4.4-4.4h-4a4.4,4.4,0,0,0-4.4,4.4V103Z" transform="translate(-23.8 -26.31)"/><path class="cls-2" d="M426.56,103.58h-14V79.36a5,5,0,0,1,5-5h4a5,5,0,0,1,5,5Zm-12.82-1.21h11.61v-23a3.79,3.79,0,0,0-3.79-3.79h-4a3.79,3.79,0,0,0-3.79,3.79Z" transform="translate(-23.8 -26.31)"/><path class="cls-1" d="M384.41,103V79.36A4.4,4.4,0,0,0,380,75h-4a4.4,4.4,0,0,0-4.39,4.4V103Z" transform="translate(-23.8 -26.31)"/><path class="cls-2" d="M385,103.58H371V79.36a5,5,0,0,1,5-5h4a5,5,0,0,1,5,5Zm-12.83-1.21h11.62v-23a3.8,3.8,0,0,0-3.8-3.79h-4a3.79,3.79,0,0,0-3.79,3.79Z" transform="translate(-23.8 -26.31)"/><path class="cls-1" d="M378,78.91v0Z" transform="translate(-23.8 -26.31)"/><rect class="cls-2" x="353.59" y="52.6" width="1.21" height="24.38"/><path class="cls-1" d="M371.61,78.91h0Z" transform="translate(-23.8 -26.31)"/><rect class="cls-2" x="347.81" y="52" width="12.8" height="1.21"/><path class="cls-1" d="M419.53,78.91v0Z" transform="translate(-23.8 -26.31)"/><rect class="cls-2" x="395.13" y="52.6" width="1.21" height="24.38"/><path class="cls-1" d="M413.15,78.91h0Z" transform="translate(-23.8 -26.31)"/><rect class="cls-2" x="389.34" y="52" width="12.8" height="1.21"/><rect class="cls-1" x="321.23" y="74.76" width="21.1" height="2.34"/><path class="cls-2" d="M366.74,104H344.43v-3.55h22.31Zm-21.1-1.2h19.9v-1.14h-19.9Z" transform="translate(-23.8 -26.31)"/><path class="cls-1" d="M355.59,101.07v0Z" transform="translate(-23.8 -26.31)"/><rect class="cls-2" x="331.18" y="19.91" width="1.21" height="54.84"/><polygon class="cls-1" points="337.94 2.22 331.68 2.22 325.41 2.22 320.46 22.53 331.68 22.53 342.88 22.53 337.94 2.22"/><path class="cls-2" d="M367.46,49.44h-24l5.24-21.52h13.48ZM345,48.24h20.88l-4.65-19.11H349.69Z" transform="translate(-23.8 -26.31)"/><path class="cls-1" d="M349.82,48.84v0Z" transform="translate(-23.8 -26.31)"/><rect class="cls-2" x="325.41" y="22.53" width="1.21" height="14.45"/><path class="cls-1" d="M349.82,62.93s-1.65,4,0,4S349.82,62.93,349.82,62.93Z" transform="translate(-23.8 -26.31)"/><path class="cls-2" d="M349.82,67.54a1.22,1.22,0,0,1-1.06-.54c-.73-1.09.2-3.57.5-4.3a.6.6,0,0,1,.56-.38.61.61,0,0,1,.56.38c.3.73,1.23,3.21.5,4.3A1.22,1.22,0,0,1,349.82,67.54Zm-.05-1.21h.11a2.36,2.36,0,0,0-.06-1.4c-.16.72-.18,1.26-.05,1.4Z" transform="translate(-23.8 -26.31)"/><rect class="cls-3" x="10.67" y="261.64" width="62.98" height="23.33"/><path class="cls-2" d="M98.06,311.88H33.87V287.34H98.06Zm-63-1.21H96.85V288.55H35.08Z" transform="translate(-23.8 -26.31)"/><rect class="cls-1" x="14.93" y="284.97" width="3.48" height="4.97"/><path class="cls-2" d="M42.82,316.84H38.13v-6.17h4.69Zm-3.48-1.21h2.27v-3.75H39.34Z" transform="translate(-23.8 -26.31)"/><rect class="cls-1" x="66.14" y="284.97" width="3.48" height="4.97"/><path class="cls-2" d="M94,316.84H89.34v-6.17H94Zm-3.48-1.21h2.28v-3.75H90.55Z" transform="translate(-23.8 -26.31)"/><path class="cls-1" d="M66,288v0Z" transform="translate(-23.8 -26.31)"/><rect class="cls-2" x="41.55" y="261.64" width="1.21" height="23.33"/><path class="cls-2" d="M68.38,303.85a.6.6,0,0,1-.6-.61v-7.1a.61.61,0,0,1,1.21,0v7.1A.61.61,0,0,1,68.38,303.85Z" transform="translate(-23.8 -26.31)"/><path class="cls-2" d="M63.49,303.85a.6.6,0,0,1-.6-.61v-7.1a.6.6,0,0,1,.6-.6.61.61,0,0,1,.61.6v7.1A.61.61,0,0,1,63.49,303.85Z" transform="translate(-23.8 -26.31)"/><rect class="cls-1" x="0.78" y="215.47" width="21.32" height="46.17"/><path class="cls-2" d="M46.51,288.55H24V241.17H46.51Zm-21.32-1.21H45.3v-45H25.19Z" transform="translate(-23.8 -26.31)"/><rect class="cls-1" x="62.38" y="215.47" width="21.32" height="46.17"/><path class="cls-2" d="M108.11,288.55H85.58V241.17h22.53Zm-21.32-1.21H106.9v-45H86.79Z" transform="translate(-23.8 -26.31)"/><rect class="cls-1" x="22.1" y="215.47" width="40.28" height="46.17"/><path class="cls-2" d="M86.79,288.55H45.3V241.17H86.79Zm-40.28-1.21H85.58v-45H46.51Z" transform="translate(-23.8 -26.31)"/><path class="cls-2" d="M31.29,260.41a.58.58,0,0,1-.37-.13.6.6,0,0,1-.11-.85l7.69-9.89a.62.62,0,0,1,.85-.11.61.61,0,0,1,.1.85l-7.69,9.89A.57.57,0,0,1,31.29,260.41Z" transform="translate(-23.8 -26.31)"/><path class="cls-2" d="M29.31,269.26a.64.64,0,0,1-.37-.13.61.61,0,0,1-.11-.85l7.69-9.89a.61.61,0,0,1,.85-.11.62.62,0,0,1,.11.85L29.79,269A.6.6,0,0,1,29.31,269.26Z" transform="translate(-23.8 -26.31)"/><path class="cls-2" d="M74,260.41a.58.58,0,0,1-.37-.13.6.6,0,0,1-.11-.85l7.69-9.89a.61.61,0,0,1,1,.74l-7.69,9.89A.6.6,0,0,1,74,260.41Z" transform="translate(-23.8 -26.31)"/><path class="cls-2" d="M72,269.26a.64.64,0,0,1-.37-.13.62.62,0,0,1-.11-.85l7.69-9.89a.61.61,0,1,1,1,.74L72.48,269A.6.6,0,0,1,72,269.26Z" transform="translate(-23.8 -26.31)"/><rect class="cls-1" x="17.1" y="249.45" width="20.18" height="12.02"/><path class="cls-2" d="M61.69,288.38H40.3V275.16H61.69Zm-20.18-1.21h19v-10.8h-19Z" transform="translate(-23.8 -26.31)"/><path class="cls-1" d="M40.91,279.66h0Z" transform="translate(-23.8 -26.31)"/><rect class="cls-2" x="17.1" y="252.75" width="20.18" height="1.21"/><rect class="cls-1" x="25.45" y="251.96" width="3.3" height="3.74"/><path class="cls-2" d="M53.16,282.61H48.65v-4.95h4.51Zm-3.3-1.21H52v-2.53H49.86Z" transform="translate(-23.8 -26.31)"/><rect class="cls-1" x="60.24" y="246.58" width="4.23" height="14.89"/><path class="cls-2" d="M88.87,288.38H83.44v-16.1h5.43Zm-4.22-1.21h3V273.49h-3Z" transform="translate(-23.8 -26.31)"/><rect class="cls-1" x="54.96" y="251.96" width="5.83" height="9.51"/><path class="cls-2" d="M85.2,288.38h-7V277.66h7Zm-5.83-1.21H84v-8.3H79.37Z" transform="translate(-23.8 -26.31)"/><rect class="cls-1" x="6.19" y="179.6" width="21.1" height="2.35"/><path class="cls-2" d="M51.7,208.86H29.39v-3.55H51.7Zm-21.1-1.21H50.49v-1.14H30.6Z" transform="translate(-23.8 -26.31)"/><path class="cls-1" d="M40.54,205.91v0Z" transform="translate(-23.8 -26.31)"/><rect class="cls-2" x="16.13" y="124.76" width="1.21" height="54.84"/><polygon class="cls-1" points="10.58 107.06 16.85 107.06 23.11 107.06 28.06 127.38 16.85 127.38 5.64 127.38 10.58 107.06"/><path class="cls-2" d="M52.63,154.29h-24l5.24-21.52H47.39Zm-22.42-1.21H51.09L46.44,134H34.86Z" transform="translate(-23.8 -26.31)"/><path class="cls-1" d="M46.31,153.68v0Z" transform="translate(-23.8 -26.31)"/><rect class="cls-2" x="21.9" y="127.38" width="1.21" height="14.45"/><path class="cls-1" d="M46.31,167.77s1.65,4,0,4S46.31,167.77,46.31,167.77Z" transform="translate(-23.8 -26.31)"/><path class="cls-2" d="M46.31,172.39a1.23,1.23,0,0,1-1.06-.54c-.73-1.09.2-3.57.5-4.31a.62.62,0,0,1,.56-.37.6.6,0,0,1,.56.37c.3.74,1.23,3.22.5,4.31A1.22,1.22,0,0,1,46.31,172.39Zm-.05-1.21h.11c.05,0,.16-.44-.06-1.39a2.42,2.42,0,0,0-.05,1.4Z" transform="translate(-23.8 -26.31)"/><rect class="cls-3" x="34.78" y="144.86" width="44.29" height="32.12"/><path class="cls-2" d="M103.49,203.89H58V170.56h45.51Zm-44.3-1.2h43.09V171.77H59.19Z" transform="translate(-23.8 -26.31)"/><rect class="cls-1" x="39.04" y="176.98" width="3.48" height="4.97"/><path class="cls-2" d="M66.93,208.86H62.24v-6.17h4.69Zm-3.48-1.21h2.27v-3.76H63.45Z" transform="translate(-23.8 -26.31)"/><rect class="cls-1" x="71.57" y="176.98" width="3.48" height="4.97"/><path class="cls-2" d="M99.46,208.86H94.77v-6.17h4.69ZM96,207.65h2.27v-3.76H96Z" transform="translate(-23.8 -26.31)"/><path class="cls-1" d="M58.59,187.23h0Z" transform="translate(-23.8 -26.31)"/><rect class="cls-2" x="34.78" y="160.32" width="44.29" height="1.21"/><rect class="cls-1" x="61.58" y="141.51" width="14.57" height="2.94"/><path class="cls-2" d="M100.56,171.36H84.78v-4.15h15.78ZM86,170.15H99.35v-1.73H86Z" transform="translate(-23.8 -26.31)"/><rect class="cls-1" x="60.63" y="135.15" width="14.57" height="2.94"/><path class="cls-2" d="M99.61,165H83.83v-4.15H99.61ZM85,163.79H98.4v-1.73H85Z" transform="translate(-23.8 -26.31)"/><rect class="cls-1" x="59.07" y="138.22" width="14.57" height="2.94"/><path class="cls-2" d="M98.05,168.07H82.27v-4.15H98.05Zm-14.57-1.21H96.84v-1.73H83.48Z" transform="translate(-23.8 -26.31)"/><path class="cls-2" d="M84.28,179.75H77.19a.61.61,0,1,1,0-1.21h7.09a.61.61,0,1,1,0,1.21Z" transform="translate(-23.8 -26.31)"/><path class="cls-2" d="M84.28,195.39H77.19a.61.61,0,1,1,0-1.21h7.09a.61.61,0,1,1,0,1.21Z" transform="translate(-23.8 -26.31)"/><rect class="cls-1" x="105.49" y="153.85" width="24.18" height="4.69"/><path class="cls-2" d="M154.08,185.45H128.69v-5.9h25.39Zm-24.18-1.21h23v-3.48h-23Z" transform="translate(-23.8 -26.31)"/><path class="cls-1" d="M151.06,184.85v0Z" transform="translate(-23.8 -26.31)"/><rect class="cls-2" x="126.65" y="157.94" width="1.21" height="24.62"/><path class="cls-1" d="M129.3,208.26v0Z" transform="translate(-23.8 -26.31)"/><rect class="cls-2" x="104.89" y="123.02" width="1.21" height="59.53"/><rect class="cls-1" x="105.49" y="123.62" width="2.09" height="18.21"/><path class="cls-2" d="M132,168.74h-3.3V149.33H132Zm-2.09-1.21h.88v-17h-.88Z" transform="translate(-23.8 -26.31)"/><rect class="cls-1" x="165.88" y="153.85" width="24.18" height="4.69"/><path class="cls-2" d="M214.46,185.45H189.08v-5.9h25.38Zm-24.18-1.21h23v-3.48h-23Z" transform="translate(-23.8 -26.31)"/><path class="cls-1" d="M192.1,184.85v0Z" transform="translate(-23.8 -26.31)"/><rect class="cls-2" x="167.69" y="157.94" width="1.21" height="24.62"/><path class="cls-1" d="M213.86,208.26v0Z" transform="translate(-23.8 -26.31)"/><rect class="cls-2" x="189.45" y="123.02" width="1.21" height="59.53"/><rect class="cls-1" x="187.97" y="123.62" width="2.09" height="18.21"/><path class="cls-2" d="M214.46,168.74h-3.29V149.33h3.29Zm-2.08-1.21h.88v-17h-.88Z" transform="translate(-23.8 -26.31)"/><rect class="cls-1" x="113.52" y="141.51" width="2.99" height="40.44"/><path class="cls-2" d="M140.92,208.86h-4.2V167.21h4.2Zm-3-1.21h1.78V168.42h-1.78Z" transform="translate(-23.8 -26.31)"/><rect class="cls-1" x="179.1" y="141.51" width="2.99" height="40.44"/><path class="cls-2" d="M206.5,208.86h-4.2V167.21h4.2Zm-3-1.21h1.78V168.42h-1.78Z" transform="translate(-23.8 -26.31)"/><rect class="cls-1" x="113.52" y="134.6" width="68.57" height="7.23"/><path class="cls-2" d="M206.5,168.74H136.72v-8.43H206.5Zm-68.57-1.21h67.36v-6H137.93Z" transform="translate(-23.8 -26.31)"/><polygon class="cls-3" points="120.44 134.71 148.14 153.15 174.96 134.71 120.44 134.71"/><path class="cls-2" d="M172,180.19l-29.71-19.77h58.47Zm-25.71-18.56,25.7,17.1,24.87-17.1Z" transform="translate(-23.8 -26.31)"/><path class="cls-1" d="M179.61,152.31a2.55,2.55,0,1,0,2.54-2.54A2.55,2.55,0,0,0,179.61,152.31Z" transform="translate(-23.8 -26.31)"/><path class="cls-2" d="M182.15,155.46a3.15,3.15,0,1,1,3.15-3.15A3.16,3.16,0,0,1,182.15,155.46Zm0-5.09a1.94,1.94,0,1,0,1.94,1.94A1.94,1.94,0,0,0,182.15,150.37Z" transform="translate(-23.8 -26.31)"/><circle class="cls-1" cx="160.89" cy="122.89" r="2.55"/><path class="cls-2" d="M184.7,152.35a3.15,3.15,0,1,1,3.15-3.15A3.15,3.15,0,0,1,184.7,152.35Zm0-5.09a1.94,1.94,0,1,0,1.94,1.94A1.94,1.94,0,0,0,184.7,147.26Z" transform="translate(-23.8 -26.31)"/><circle class="cls-1" cx="162.33" cy="126.92" r="3.29"/><path class="cls-2" d="M186.13,157.12a3.89,3.89,0,1,1,3.89-3.89A3.89,3.89,0,0,1,186.13,157.12Zm0-6.57a2.68,2.68,0,1,0,2.68,2.68A2.68,2.68,0,0,0,186.13,150.55Z" transform="translate(-23.8 -26.31)"/><path class="cls-1" d="M185.16,153.28h6.38s-.85,6.64-7.17,6.64-7.09-6.64-7.09-6.64Z" transform="translate(-23.8 -26.31)"/><path class="cls-2" d="M184.37,160.53a7.11,7.11,0,0,1-6.44-3.62,10.09,10.09,0,0,1-1.25-3.56l-.07-.68h15.62l-.09.69a10,10,0,0,1-1.3,3.55A7.19,7.19,0,0,1,184.37,160.53ZM178,153.88a9.3,9.3,0,0,0,1,2.45,5.9,5.9,0,0,0,5.38,3,6,6,0,0,0,5.44-3,9.21,9.21,0,0,0,1-2.41Z" transform="translate(-23.8 -26.31)"/><rect class="cls-1" x="646.55" y="200.27" width="14.1" height="2.74"/><path class="cls-2" d="M684.8,229.66H670v-3.44h14.8Zm-14.1-.7h13.4v-2H670.7Z" transform="translate(-23.8 -26.31)"/><path class="cls-1" d="M683,229.31v0Z" transform="translate(-23.8 -26.31)"/><rect class="cls-2" x="658.88" y="202.65" width="0.7" height="14.35"/><path class="cls-1" d="M670.35,243v0Z" transform="translate(-23.8 -26.31)"/><rect class="cls-2" x="646.2" y="182.3" width="0.7" height="34.7"/><rect class="cls-1" x="646.55" y="182.65" width="1.22" height="10.61"/><path class="cls-2" d="M671.92,219.92H670V208.6h1.92Zm-1.22-.7h.52v-9.91h-.52Z" transform="translate(-23.8 -26.31)"/><rect class="cls-1" x="681.75" y="200.27" width="14.1" height="2.74"/><path class="cls-2" d="M720,229.66H705.2v-3.44H720Zm-14.1-.7h13.4v-2H705.9Z" transform="translate(-23.8 -26.31)"/><path class="cls-1" d="M707,229.31v0Z" transform="translate(-23.8 -26.31)"/><rect class="cls-2" x="682.8" y="202.65" width="0.7" height="14.35"/><path class="cls-1" d="M719.65,243v0Z" transform="translate(-23.8 -26.31)"/><rect class="cls-2" x="695.49" y="182.3" width="0.7" height="34.7"/><rect class="cls-1" x="694.63" y="182.65" width="1.22" height="10.61"/><path class="cls-2" d="M720,219.92h-1.92V208.6H720Zm-1.22-.7h.52v-9.91h-.52Z" transform="translate(-23.8 -26.31)"/><rect class="cls-1" x="651.23" y="193.07" width="1.74" height="23.57"/><path class="cls-2" d="M677.13,243.31h-2.45V219h2.45Zm-1.74-.71h1V219.73h-1Z" transform="translate(-23.8 -26.31)"/><rect class="cls-1" x="689.46" y="193.07" width="1.74" height="23.57"/><path class="cls-2" d="M715.36,243.31h-2.45V219h2.45Zm-1.75-.71h1V219.73h-1Z" transform="translate(-23.8 -26.31)"/><rect class="cls-1" x="651.23" y="189.05" width="39.97" height="4.21"/><path class="cls-2" d="M715.36,219.92H674.68V215h40.68Zm-40-.7h39.26v-3.51H675.39Z" transform="translate(-23.8 -26.31)"/><polygon class="cls-3" points="655.26 189.11 671.41 199.86 687.04 189.11 655.26 189.11"/><path class="cls-2" d="M695.21,226.59,677.9,215.07H712Zm-15-10.82,15,10,14.5-10Z" transform="translate(-23.8 -26.31)"/><path class="cls-1" d="M699.68,210.34a1.49,1.49,0,1,0,1.48-1.48A1.49,1.49,0,0,0,699.68,210.34Z" transform="translate(-23.8 -26.31)"/><path class="cls-2" d="M701.16,212.18a1.84,1.84,0,1,1,1.84-1.84A1.83,1.83,0,0,1,701.16,212.18Zm0-3a1.14,1.14,0,1,0,1.14,1.13A1.14,1.14,0,0,0,701.16,209.21Z" transform="translate(-23.8 -26.31)"/><circle class="cls-1" cx="678.84" cy="182.22" r="1.48"/><path class="cls-2" d="M702.65,210.37a1.84,1.84,0,1,1,1.83-1.84A1.85,1.85,0,0,1,702.65,210.37Zm0-3a1.13,1.13,0,0,0,0,2.26,1.13,1.13,0,0,0,0-2.26Z" transform="translate(-23.8 -26.31)"/><circle class="cls-1" cx="679.68" cy="184.57" r="1.92"/><path class="cls-2" d="M703.48,213.15a2.27,2.27,0,1,1,2.27-2.27A2.27,2.27,0,0,1,703.48,213.15Zm0-3.83a1.56,1.56,0,1,0,1.57,1.56A1.56,1.56,0,0,0,703.48,209.32Z" transform="translate(-23.8 -26.31)"/><path class="cls-1" d="M702.92,210.91h3.72s-.5,3.87-4.19,3.87-4.12-3.87-4.12-3.87Z" transform="translate(-23.8 -26.31)"/><path class="cls-2" d="M702.45,215.13A4.13,4.13,0,0,1,698.7,213,5.64,5.64,0,0,1,698,211l-.05-.4H707l0,.4a6,6,0,0,1-.76,2.08A4.21,4.21,0,0,1,702.45,215.13Zm-3.7-3.87a5.28,5.28,0,0,0,.57,1.42,3.43,3.43,0,0,0,3.13,1.75,3.51,3.51,0,0,0,3.18-1.77,4.88,4.88,0,0,0,.57-1.4Z" transform="translate(-23.8 -26.31)"/><rect class="cls-1" x="325.46" y="106.33" width="71.66" height="76.06" rx="3.55"/><path class="cls-2" d="M417.37,209.3H352.81a4.16,4.16,0,0,1-4.15-4.16V136.19a4.16,4.16,0,0,1,4.15-4.16h64.56a4.17,4.17,0,0,1,4.16,4.16v68.95A4.17,4.17,0,0,1,417.37,209.3Zm-64.56-76.06a3,3,0,0,0-2.94,2.95v68.95a3,3,0,0,0,2.94,3h64.56a3,3,0,0,0,2.95-3V136.19a3,3,0,0,0-2.95-2.95Z" transform="translate(-23.8 -26.31)"/><rect class="cls-2" x="339.47" y="106.33" width="1.21" height="76.06"/><rect class="cls-2" x="381.66" y="106.33" width="1.21" height="76.06"/><rect class="cls-2" x="325.13" y="163.67" width="15.34" height="1.21"/><rect class="cls-2" x="325.13" y="144.3" width="15.34" height="1.21"/><rect class="cls-2" x="325.13" y="125.62" width="15.34" height="1.21"/><rect class="cls-2" x="381.9" y="163.67" width="15.34" height="1.21"/><rect class="cls-2" x="381.9" y="144.3" width="15.34" height="1.21"/><rect class="cls-2" x="381.9" y="125.62" width="15.34" height="1.21"/><rect class="cls-3" x="340.07" y="153.85" width="42.19" height="28.54"/><path class="cls-2" d="M406.67,209.3h-43.4V179.55h43.4Zm-42.19-1.21h41V180.76h-41Z" transform="translate(-23.8 -26.31)"/><rect class="cls-2" x="340.07" y="119.74" width="41.83" height="1.21"/><path class="cls-2" d="M388.69,185.49H381.6a.61.61,0,1,1,0-1.21h7.09a.61.61,0,1,1,0,1.21Z" transform="translate(-23.8 -26.31)"/><path class="cls-2" d="M402.82,174.84h-35.5V156h35.5Zm-34.29-1.21h33.08V157.21H368.53Z" transform="translate(-23.8 -26.31)"/><path class="cls-2" d="M387.68,178.3H382v-4.67h5.66Zm-4.45-1.21h3.25v-2.25h-3.25Z" transform="translate(-23.8 -26.31)"/><path class="cls-2" d="M391.31,180.76H378.56v-3.67h12.75Zm-11.54-1.21H390.1V178.3H379.77Z" transform="translate(-23.8 -26.31)"/><path class="cls-2" d="M400.38,171.82H369.66V158.43h30.72Zm-29.51-1.21h28.3v-11h-28.3Z" transform="translate(-23.8 -26.31)"/><rect class="cls-2" x="360.57" y="106.33" width="1.21" height="14.02"/><path class="cls-2" d="M382.73,142.71a.6.6,0,0,1-.61-.6v-4.93a.61.61,0,0,1,1.21,0v4.93A.6.6,0,0,1,382.73,142.71Z" transform="translate(-23.8 -26.31)"/><path class="cls-2" d="M387.56,142.71a.6.6,0,0,1-.6-.6v-4.93a.61.61,0,0,1,1.21,0v4.93A.6.6,0,0,1,387.56,142.71Z" transform="translate(-23.8 -26.31)"/><rect class="cls-1" x="391.33" y="134.01" width="2.97" height="10.64"/><path class="cls-2" d="M418.71,171.57h-4.18V159.72h4.18Zm-3-1.21h1.76v-9.43h-1.76Z" transform="translate(-23.8 -26.31)"/><rect class="cls-1" x="385.28" y="135.13" width="2.97" height="9.53"/><path class="cls-2" d="M412.66,171.57h-4.18V160.83h4.18Zm-3-1.21h1.76V162h-1.76Z" transform="translate(-23.8 -26.31)"/><rect class="cls-1" x="388.36" y="132.65" width="2.97" height="12"/><path class="cls-2" d="M415.74,171.57h-4.18V158.36h4.18Zm-3-1.21h1.76V159.57h-1.76Z" transform="translate(-23.8 -26.31)"/><rect class="cls-1" x="330.28" y="174.67" width="9.6" height="2.44"/><path class="cls-2" d="M364.29,204H353.48v-3.64h10.81Zm-9.6-1.21h8.39v-1.22h-8.39Z" transform="translate(-23.8 -26.31)"/><rect class="cls-1" x="328.64" y="179.95" width="9.6" height="2.44"/><path class="cls-2" d="M362.65,209.3H351.84v-3.65h10.81Zm-9.6-1.21h8.39v-1.23h-8.39Z" transform="translate(-23.8 -26.31)"/><rect class="cls-1" x="327.9" y="177.4" width="9.6" height="2.44"/><path class="cls-2" d="M361.92,206.75H351.1v-3.64h10.82Zm-9.61-1.21h8.4v-1.23h-8.4Z" transform="translate(-23.8 -26.31)"/><path class="cls-2" d="M357.25,152.92a2.69,2.69,0,0,1-2.45-1.26c-1.07-1.78-.23-4.8.61-6.4.95-1.83.28-6.36-.06-7.95l-.15-.73h4.09l-.15.73c-.34,1.59-1,6.12-.06,7.95h0c.84,1.6,1.69,4.62.61,6.4A2.68,2.68,0,0,1,357.25,152.92Zm-.58-15.13c.3,1.7.89,6-.19,8-.86,1.67-1.34,4.07-.64,5.22a1.48,1.48,0,0,0,1.41.68,1.5,1.5,0,0,0,1.41-.68c.69-1.15.22-3.55-.65-5.22h0c-1.08-2.07-.49-6.32-.19-8Z" transform="translate(-23.8 -26.31)"/><rect class="cls-1" x="219.26" y="145.91" width="2.99" height="36.04"/><path class="cls-2" d="M246.66,208.86h-4.2V171.61h4.2Zm-3-1.21h1.78V172.82h-1.78Z" transform="translate(-23.8 -26.31)"/><rect class="cls-3" x="254.34" y="145.91" width="33.49" height="36.04"/><path class="cls-2" d="M312.24,208.86h-34.7V171.61h34.7Zm-33.49-1.21H311V172.82H278.75Z" transform="translate(-23.8 -26.31)"/><rect class="cls-1" x="219.26" y="139" width="68.57" height="7.23"/><path class="cls-2" d="M312.24,173.14H242.46V164.7h69.78Zm-68.57-1.21H311v-6H243.67Z" transform="translate(-23.8 -26.31)"/><path class="cls-1" d="M278.15,190.23h0Z" transform="translate(-23.8 -26.31)"/><path class="cls-2" d="M311.81,190.84H278.15a.61.61,0,1,1,0-1.21h33.66a.61.61,0,1,1,0,1.21Z" transform="translate(-23.8 -26.31)"/><path class="cls-2" d="M298.44,183.05h-7.1a.61.61,0,0,1,0-1.21h7.1a.61.61,0,0,1,0,1.21Z" transform="translate(-23.8 -26.31)"/><path class="cls-2" d="M298.44,198.54h-7.1a.61.61,0,0,1,0-1.21h7.1a.61.61,0,0,1,0,1.21Z" transform="translate(-23.8 -26.31)"/><rect class="cls-1" x="256.7" y="120.54" width="25.21" height="15.61"/><path class="cls-2" d="M306.32,163.06H279.9V146.25h26.42Zm-25.22-1.21h24V147.46h-24Z" transform="translate(-23.8 -26.31)"/><rect class="cls-1" x="253.55" y="136.15" width="31.01" height="2.67"/><path class="cls-2" d="M309,165.73H276.75v-3.88H309Zm-31-1.21h29.8v-1.46H278Z" transform="translate(-23.8 -26.31)"/><rect class="cls-1" x="258.55" y="122.44" width="21.32" height="11.96"/><path class="cls-2" d="M304.28,161.31H281.75V148.14h22.53ZM283,160.1h20.11V149.35H283Z" transform="translate(-23.8 -26.31)"/><path class="cls-1" d="M261.64,181.57v0Z" transform="translate(-23.8 -26.31)"/><path class="cls-2" d="M261.64,205.63a.6.6,0,0,1-.6-.6V181.57a.61.61,0,1,1,1.21,0V205A.6.6,0,0,1,261.64,205.63Z" transform="translate(-23.8 -26.31)"/><path class="cls-1" d="M271.54,192.14H251.75a2.32,2.32,0,0,1-2.31-2.31h0a2.31,2.31,0,0,1,2.31-2.31h19.79a2.3,2.3,0,0,1,2.3,2.31h0A2.31,2.31,0,0,1,271.54,192.14Z" transform="translate(-23.8 -26.31)"/><path class="cls-2" d="M271.54,192.74H251.75a2.91,2.91,0,1,1,0-5.82h19.79a2.91,2.91,0,0,1,0,5.82Zm-19.79-4.62a1.71,1.71,0,0,0,0,3.41h19.79a1.71,1.71,0,0,0,0-3.41Z" transform="translate(-23.8 -26.31)"/><path class="cls-2" d="M269.23,206a.6.6,0,0,1-.61-.6v-2.24H254.45v2.24a.61.61,0,0,1-.61.6.6.6,0,0,1-.6-.6v-3.44h16.59v3.44A.6.6,0,0,1,269.23,206Z" transform="translate(-23.8 -26.31)"/><rect class="cls-1" x="225.64" y="130.29" width="24.4" height="25.84" rx="3.55"/><path class="cls-2" d="M270.29,183.05H253a4.16,4.16,0,0,1-4.16-4.16V160.15A4.15,4.15,0,0,1,253,156h17.29a4.16,4.16,0,0,1,4.16,4.15v18.74A4.17,4.17,0,0,1,270.29,183.05ZM253,157.21a3,3,0,0,0-2.95,2.94v18.74a3,3,0,0,0,2.95,3h17.29a3,3,0,0,0,2.95-3V160.15a3,3,0,0,0-2.95-2.94Z" transform="translate(-23.8 -26.31)"/><path class="cls-1" d="M253.73,208.26h0a1,1,0,0,1-1-1v-.9a1,1,0,0,1,1-1h0a1,1,0,0,1,1,1v.9A1,1,0,0,1,253.73,208.26Z" transform="translate(-23.8 -26.31)"/><path class="cls-2" d="M253.73,208.86a1.59,1.59,0,0,1-1.59-1.59v-.9a1.59,1.59,0,1,1,3.18,0v.9A1.59,1.59,0,0,1,253.73,208.86Zm0-2.88a.39.39,0,0,0-.38.39v.9a.38.38,0,0,0,.38.38.39.39,0,0,0,.39-.38v-.9A.4.4,0,0,0,253.73,206Z" transform="translate(-23.8 -26.31)"/><path class="cls-1" d="M269.23,208.26h0a1,1,0,0,1-1-1v-.9a1,1,0,0,1,1-1h0a1,1,0,0,1,1,1v.9A1,1,0,0,1,269.23,208.26Z" transform="translate(-23.8 -26.31)"/><path class="cls-2" d="M269.23,208.86a1.6,1.6,0,0,1-1.6-1.59v-.9a1.6,1.6,0,1,1,3.19,0v.9A1.59,1.59,0,0,1,269.23,208.86Zm0-2.88a.4.4,0,0,0-.39.39v.9a.39.39,0,0,0,.39.38.38.38,0,0,0,.38-.38v-.9A.39.39,0,0,0,269.23,206Z" transform="translate(-23.8 -26.31)"/><path class="cls-1" d="M261.64,207.16h0a1,1,0,0,1-1-1v-.9a1,1,0,0,1,1-1h0a1,1,0,0,1,1,1v.9A1,1,0,0,1,261.64,207.16Z" transform="translate(-23.8 -26.31)"/><path class="cls-2" d="M261.64,207.76a1.59,1.59,0,0,1-1.59-1.59v-.9a1.6,1.6,0,1,1,3.19,0v.9A1.6,1.6,0,0,1,261.64,207.76Zm0-2.88a.39.39,0,0,0-.38.39v.9a.39.39,0,0,0,.77,0v-.9A.39.39,0,0,0,261.64,204.88Z" transform="translate(-23.8 -26.31)"/><path class="cls-2" d="M246.06,165.73a.6.6,0,0,1-.6-.53l-3-23.33,10.09-8.81h17.77a.61.61,0,0,1,0,1.21H253l-9.26,8.08,2.95,22.7a.6.6,0,0,1-.52.67Z" transform="translate(-23.8 -26.31)"/><rect class="cls-1" x="232.87" y="107.36" width="13.61" height="3.52"/><path class="cls-2" d="M270.88,137.79H256.07v-4.73h14.81Zm-13.6-1.21h12.39v-2.31H257.28Z" transform="translate(-23.8 -26.31)"/><rect class="cls-1" x="109.78" y="235.75" width="3.37" height="54.18"/><path class="cls-2" d="M137.56,316.84H133V261.45h4.58Zm-3.37-1.21h2.16v-53h-2.16Z" transform="translate(-23.8 -26.31)"/><rect class="cls-1" x="182.6" y="235.75" width="3.37" height="54.18"/><path class="cls-2" d="M210.39,316.84H205.8V261.45h4.59ZM207,315.63h2.17v-53H207Z" transform="translate(-23.8 -26.31)"/><path class="cls-1" d="M137.88,262.06a2.61,2.61,0,1,1-2.61-2.61A2.6,2.6,0,0,1,137.88,262.06Z" transform="translate(-23.8 -26.31)"/><path class="cls-2" d="M135.27,265.27a3.22,3.22,0,1,1,3.21-3.21A3.21,3.21,0,0,1,135.27,265.27Zm0-5.22a2,2,0,1,0,2,2A2,2,0,0,0,135.27,260.05Z" transform="translate(-23.8 -26.31)"/><path class="cls-1" d="M210.7,262.06a2.61,2.61,0,1,1-2.61-2.61A2.6,2.6,0,0,1,210.7,262.06Z" transform="translate(-23.8 -26.31)"/><path class="cls-2" d="M208.09,265.27a3.22,3.22,0,1,1,3.22-3.21A3.21,3.21,0,0,1,208.09,265.27Zm0-5.22a2,2,0,1,0,2,2A2,2,0,0,0,208.09,260.05Z" transform="translate(-23.8 -26.31)"/><rect class="cls-1" x="113.15" y="245.94" width="69.45" height="6.05"/><path class="cls-2" d="M207,278.9H136.35v-7.26H207Zm-69.45-1.21H205.8v-4.84H137.56Z" transform="translate(-23.8 -26.31)"/><rect class="cls-1" x="113.15" y="272.76" width="69.45" height="11.32"/><path class="cls-2" d="M207,311H136.35V298.46H207Zm-69.45-1.21H205.8V299.67H137.56Z" transform="translate(-23.8 -26.31)"/><path class="cls-1" d="M140.84,278.29v0Z" transform="translate(-23.8 -26.31)"/><rect class="cls-2" x="116.43" y="251.99" width="1.21" height="20.77"/><path class="cls-1" d="M145.23,278.29v0Z" transform="translate(-23.8 -26.31)"/><rect class="cls-2" x="120.82" y="251.99" width="1.21" height="20.77"/><path class="cls-1" d="M149.63,278.29v0Z" transform="translate(-23.8 -26.31)"/><rect class="cls-2" x="125.22" y="251.99" width="1.21" height="20.77"/><path class="cls-1" d="M154,278.29v0Z" transform="translate(-23.8 -26.31)"/><rect class="cls-2" x="129.62" y="251.99" width="1.21" height="20.77"/><path class="cls-1" d="M158.42,278.29v0Z" transform="translate(-23.8 -26.31)"/><rect class="cls-2" x="134.01" y="251.99" width="1.21" height="20.77"/><path class="cls-1" d="M162.82,278.29v0Z" transform="translate(-23.8 -26.31)"/><rect class="cls-2" x="138.41" y="251.99" width="1.21" height="20.77"/><path class="cls-1" d="M167.22,278.29v0Z" transform="translate(-23.8 -26.31)"/><rect class="cls-2" x="142.81" y="251.99" width="1.21" height="20.77"/><path class="cls-1" d="M171.61,278.29v0Z" transform="translate(-23.8 -26.31)"/><rect class="cls-2" x="147.2" y="251.99" width="1.21" height="20.77"/><path class="cls-1" d="M176,278.29v0Z" transform="translate(-23.8 -26.31)"/><rect class="cls-2" x="151.6" y="251.99" width="1.21" height="20.77"/><path class="cls-1" d="M180.4,278.29v0Z" transform="translate(-23.8 -26.31)"/><rect class="cls-2" x="156" y="251.99" width="1.21" height="20.77"/><path class="cls-1" d="M184.8,278.29v0Z" transform="translate(-23.8 -26.31)"/><rect class="cls-2" x="160.39" y="251.99" width="1.21" height="20.77"/><path class="cls-1" d="M189.2,278.29v0Z" transform="translate(-23.8 -26.31)"/><rect class="cls-2" x="164.79" y="251.99" width="1.21" height="20.77"/><path class="cls-1" d="M193.59,278.29v0Z" transform="translate(-23.8 -26.31)"/><rect class="cls-2" x="169.18" y="251.99" width="1.21" height="20.77"/><path class="cls-1" d="M198,278.29v0Z" transform="translate(-23.8 -26.31)"/><rect class="cls-2" x="173.58" y="251.99" width="1.21" height="20.77"/><path class="cls-1" d="M202.39,278.29v0Z" transform="translate(-23.8 -26.31)"/><rect class="cls-2" x="177.98" y="251.99" width="1.21" height="20.77"/><path class="cls-3" d="M194.44,291.26H148.79a3.55,3.55,0,0,1-3.56-3.55V272.3H198v15.41A3.55,3.55,0,0,1,194.44,291.26Z" transform="translate(-23.8 -26.31)"/><path class="cls-2" d="M194.44,291.87H148.79a4.16,4.16,0,0,1-4.16-4.16v-16h54v16A4.16,4.16,0,0,1,194.44,291.87Zm-48.6-19v14.8a3,3,0,0,0,2.95,3h45.65a3,3,0,0,0,2.95-3v-14.8Z" transform="translate(-23.8 -26.31)"/><path class="cls-2" d="M141.55,272.3h-1.21v-26a5.13,5.13,0,0,1,5.12-5.12h4.06a5.12,5.12,0,0,1,5.11,5.12v3.62h-1.21v-3.62a3.91,3.91,0,0,0-3.9-3.91h-4.06a3.91,3.91,0,0,0-3.91,3.91Z" transform="translate(-23.8 -26.31)"/><polygon class="cls-2" points="135.22 233.5 134.01 233.5 134.01 224.21 125.88 224.21 125.88 233.5 124.67 233.5 124.67 223 135.22 223 135.22 233.5"/><rect class="cls-2" x="127.86" y="223.6" width="1.21" height="14.75"/><rect class="cls-2" x="131.16" y="223.6" width="1.21" height="7.13"/><path class="cls-1" d="M150.07,259.8a1,1,0,1,1-1-1A1,1,0,0,1,150.07,259.8Z" transform="translate(-23.8 -26.31)"/><path class="cls-2" d="M149.08,261.4a1.6,1.6,0,1,1,1.59-1.6A1.6,1.6,0,0,1,149.08,261.4Zm0-2a.39.39,0,1,0,0,.77.39.39,0,0,0,0-.77Z" transform="translate(-23.8 -26.31)"/><circle class="cls-1" cx="134.62" cy="233.5" r="0.99"/><path class="cls-2" d="M158.42,261.4a1.6,1.6,0,1,1,1.6-1.6A1.6,1.6,0,0,1,158.42,261.4Zm0-2a.39.39,0,0,0,0,.77.39.39,0,1,0,0-.77Z" transform="translate(-23.8 -26.31)"/><circle class="cls-1" cx="128.46" cy="238.74" r="0.99"/><path class="cls-2" d="M152.27,266.64a1.6,1.6,0,1,1,1.59-1.59A1.6,1.6,0,0,1,152.27,266.64Zm0-2a.39.39,0,1,0,0,.77.39.39,0,0,0,0-.77Z" transform="translate(-23.8 -26.31)"/><circle class="cls-1" cx="131.76" cy="231.08" r="0.99"/><path class="cls-2" d="M155.56,259a1.6,1.6,0,1,1,1.6-1.59A1.6,1.6,0,0,1,155.56,259Zm0-2a.39.39,0,1,0,.39.39A.38.38,0,0,0,155.56,257Z" transform="translate(-23.8 -26.31)"/><rect class="cls-1" x="328.41" y="243.83" width="66.39" height="46.1"/><path class="cls-2" d="M419.21,316.84h-67.6v-47.3h67.6Zm-66.39-1.21H418V270.74H352.82Z" transform="translate(-23.8 -26.31)"/><rect class="cls-1" x="328.41" y="243.83" width="66.39" height="10.33"/><path class="cls-2" d="M419.21,281.07h-67.6V269.54h67.6Zm-66.39-1.21H418v-9.12H352.82Z" transform="translate(-23.8 -26.31)"/><rect class="cls-1" x="333.3" y="258.91" width="55.46" height="25.17"/><path class="cls-2" d="M413.17,311H356.5V284.62h56.67Zm-55.46-1.21H412V285.83H357.71Z" transform="translate(-23.8 -26.31)"/><circle class="cls-1" cx="340.15" cy="249" r="2.17"/><path class="cls-2" d="M364,278.07a2.77,2.77,0,1,1,2.77-2.77A2.77,2.77,0,0,1,364,278.07Zm0-4.33a1.57,1.57,0,1,0,1.56,1.56A1.56,1.56,0,0,0,364,273.74Z" transform="translate(-23.8 -26.31)"/><path class="cls-1" d="M364,271.82v0Z" transform="translate(-23.8 -26.31)"/><path class="cls-2" d="M364,278.07a.6.6,0,0,1-.61-.6v-5.65a.61.61,0,0,1,1.21,0v5.65A.6.6,0,0,1,364,278.07Z" transform="translate(-23.8 -26.31)"/><path class="cls-1" d="M374.37,275.3a2.17,2.17,0,1,1-2.17-2.16A2.17,2.17,0,0,1,374.37,275.3Z" transform="translate(-23.8 -26.31)"/><path class="cls-2" d="M372.2,278.07A2.77,2.77,0,1,1,375,275.3,2.77,2.77,0,0,1,372.2,278.07Zm0-4.33a1.57,1.57,0,1,0,1.56,1.56A1.56,1.56,0,0,0,372.2,273.74Z" transform="translate(-23.8 -26.31)"/><path class="cls-1" d="M372.2,271.82v0Z" transform="translate(-23.8 -26.31)"/><path class="cls-2" d="M372.2,278.07a.6.6,0,0,1-.6-.6v-5.65a.6.6,0,0,1,.6-.6.61.61,0,0,1,.61.6v5.65A.61.61,0,0,1,372.2,278.07Z" transform="translate(-23.8 -26.31)"/><path class="cls-1" d="M382.61,275.3a2.17,2.17,0,1,1-2.17-2.16A2.17,2.17,0,0,1,382.61,275.3Z" transform="translate(-23.8 -26.31)"/><path class="cls-2" d="M380.44,278.07a2.77,2.77,0,1,1,2.77-2.77A2.78,2.78,0,0,1,380.44,278.07Zm0-4.33a1.57,1.57,0,0,0,0,3.13,1.57,1.57,0,1,0,0-3.13Z" transform="translate(-23.8 -26.31)"/><path class="cls-1" d="M380.44,271.82v0Z" transform="translate(-23.8 -26.31)"/><path class="cls-2" d="M380.44,278.07a.6.6,0,0,1-.6-.6v-5.65a.61.61,0,0,1,1.21,0v5.65A.6.6,0,0,1,380.44,278.07Z" transform="translate(-23.8 -26.31)"/><path class="cls-1" d="M390.85,275.3a2.17,2.17,0,1,1-2.16-2.16A2.17,2.17,0,0,1,390.85,275.3Z" transform="translate(-23.8 -26.31)"/><path class="cls-2" d="M388.69,278.07a2.77,2.77,0,1,1,2.77-2.77A2.77,2.77,0,0,1,388.69,278.07Zm0-4.33a1.57,1.57,0,1,0,1.56,1.56A1.57,1.57,0,0,0,388.69,273.74Z" transform="translate(-23.8 -26.31)"/><path class="cls-1" d="M388.69,271.82v0Z" transform="translate(-23.8 -26.31)"/><path class="cls-2" d="M388.69,278.07a.6.6,0,0,1-.61-.6v-5.65a.61.61,0,0,1,1.21,0v5.65A.6.6,0,0,1,388.69,278.07Z" transform="translate(-23.8 -26.31)"/><circle class="cls-1" cx="378.22" cy="249" r="2.17"/><path class="cls-2" d="M402,278.07a2.77,2.77,0,1,1,2.77-2.77A2.77,2.77,0,0,1,402,278.07Zm0-4.33a1.57,1.57,0,1,0,1.56,1.56A1.56,1.56,0,0,0,402,273.74Z" transform="translate(-23.8 -26.31)"/><path class="cls-1" d="M402,271.82v0Z" transform="translate(-23.8 -26.31)"/><path class="cls-2" d="M402,278.07a.6.6,0,0,1-.6-.6v-5.65a.6.6,0,0,1,.6-.6.61.61,0,0,1,.61.6v5.65A.61.61,0,0,1,402,278.07Z" transform="translate(-23.8 -26.31)"/><path class="cls-3" d="M409.13,275.3a1.32,1.32,0,1,1-1.32-1.32A1.32,1.32,0,0,1,409.13,275.3Z" transform="translate(-23.8 -26.31)"/><path class="cls-2" d="M407.81,277.23a1.93,1.93,0,1,1,1.92-1.93A1.93,1.93,0,0,1,407.81,277.23Zm0-2.64a.72.72,0,1,0,.71.71A.71.71,0,0,0,407.81,274.59Z" transform="translate(-23.8 -26.31)"/><path class="cls-2" d="M397.26,298.86a.64.64,0,0,1-.37-.13.61.61,0,0,1-.1-.85l6.58-8.47a.61.61,0,0,1,1,.74l-6.59,8.47A.6.6,0,0,1,397.26,298.86Z" transform="translate(-23.8 -26.31)"/><path class="cls-2" d="M395.57,306.43a.58.58,0,0,1-.37-.13.6.6,0,0,1-.11-.84l6.59-8.47a.6.6,0,1,1,.95.74l-6.58,8.47A.62.62,0,0,1,395.57,306.43Z" transform="translate(-23.8 -26.31)"/><path class="cls-2" d="M368.47,298.86a.64.64,0,0,1-.37-.13.62.62,0,0,1-.11-.85l6.59-8.47a.61.61,0,0,1,.85-.11.61.61,0,0,1,.1.85L369,298.62A.6.6,0,0,1,368.47,298.86Z" transform="translate(-23.8 -26.31)"/><path class="cls-2" d="M366.78,306.43a.58.58,0,0,1-.37-.13.59.59,0,0,1-.11-.84l6.58-8.47a.61.61,0,0,1,1,.74l-6.59,8.47A.6.6,0,0,1,366.78,306.43Z" transform="translate(-23.8 -26.31)"/><path class="cls-2" d="M413.94,270.74H357.27v-3.65h56.67Zm-55.46-1.2h54.25V268.3H358.48Z" transform="translate(-23.8 -26.31)"/><polygon class="cls-3" points="369.8 215.4 369.8 211.77 353.68 211.77 353.68 215.4 337.55 221.33 385.93 221.33 369.8 215.4"/><path class="cls-2" d="M413.13,248.25H358l18.92-7v-3.81H394.2v3.81ZM364.75,247h41.59L393,242.13v-3.45H378.09v3.45Z" transform="translate(-23.8 -26.31)"/><rect class="cls-1" x="334.07" y="221.33" width="54.69" height="2.8"/><path class="cls-2" d="M412.56,251.05H357.88a.61.61,0,0,1-.61-.61v-2.8a.6.6,0,0,1,.61-.6h54.68a.6.6,0,0,1,.61.6v2.8A.61.61,0,0,1,412.56,251.05Zm-54.08-1.21H412v-1.59H358.48Z" transform="translate(-23.8 -26.31)"/><rect class="cls-1" x="229.45" y="213.24" width="45.05" height="76.06" rx="3.55"/><path class="cls-2" d="M294.76,316.21H256.81a4.16,4.16,0,0,1-4.16-4.15v-69a4.16,4.16,0,0,1,4.16-4.15h37.95a4.16,4.16,0,0,1,4.16,4.15v69A4.16,4.16,0,0,1,294.76,316.21Zm-37.95-76.06a3,3,0,0,0-2.95,2.95v69a3,3,0,0,0,2.95,2.94h37.95a3,3,0,0,0,2.95-2.94v-69a3,3,0,0,0-2.95-2.95Z" transform="translate(-23.8 -26.31)"/><rect class="cls-1" x="229.45" y="241.39" width="45.05" height="2.44"/><path class="cls-2" d="M298.92,270.74H252.65v-3.65h46.27Zm-45.06-1.2h43.85V268.3H253.86Z" transform="translate(-23.8 -26.31)"/><path class="cls-1" d="M292.71,278.9c0-3.55-1.41-4.92-1.41-4.92h-.09s-1.41,1.37-1.41,4.92a109.13,109.13,0,0,0,1.45,12c.06.31.09.48.09.48S292.71,281.75,292.71,278.9Z" transform="translate(-23.8 -26.31)"/><path class="cls-2" d="M291.34,292a.6.6,0,0,1-.6-.5s0-.15-.07-.42a2.85,2.85,0,0,1-.1-.46c-.05-.26-.11-.64-.18-1.09-.16-1-.34-2.26-.5-3.48-.26-2-.7-5.5-.7-7.13,0-3.77,1.54-5.29,1.6-5.35a.59.59,0,0,1,.42-.17h.09a.61.61,0,0,1,.42.17c.06.06,1.6,1.58,1.6,5.35,0,2.86-1.33,12.16-1.39,12.56a.61.61,0,0,1-.59.52Zm-.09-17c-.07.13-.15.29-.23.47a8.82,8.82,0,0,0-.62,3.47c0,1.66.48,5.5.88,8.35.38-3,.83-6.76.83-8.35A7.91,7.91,0,0,0,291.25,275Z" transform="translate(-23.8 -26.31)"/><path class="cls-1" d="M292.71,252.34a3.89,3.89,0,0,0-1.41-3.3h-.09a3.89,3.89,0,0,0-1.41,3.3,50.47,50.47,0,0,0,1.45,8c.06.21.09.33.09.33A75.62,75.62,0,0,0,292.71,252.34Z" transform="translate(-23.8 -26.31)"/><path class="cls-2" d="M291.34,261.31a.61.61,0,0,1-.59-.45l-.06-.25a2.24,2.24,0,0,1-.11-.34c-.05-.18-.11-.44-.18-.74-.16-.67-.34-1.53-.5-2.35a33.5,33.5,0,0,1-.71-4.84,4.49,4.49,0,0,1,1.69-3.81.63.63,0,0,1,.33-.09h.09a.66.66,0,0,1,.33.09,4.49,4.49,0,0,1,1.69,3.81,75,75,0,0,1-1.39,8.49.6.6,0,0,1-.58.48Zm-.09-11.5a3.68,3.68,0,0,0-.85,2.53,39.86,39.86,0,0,0,.88,5.57,43.57,43.57,0,0,0,.83-5.57A3.63,3.63,0,0,0,291.25,249.81Z" transform="translate(-23.8 -26.31)"/><rect class="cls-3" x="260.29" y="249.04" width="6.76" height="6.9" transform="translate(-107.46 113.78) rotate(-25.83)"/><path class="cls-2" d="M261.85,257.87l-3.53-7.29,7.17-3.47L269,254.4Zm-1.91-6.73,2.47,5.12,5-2.42-2.48-5.12Z" transform="translate(-23.8 -26.31)"/><rect class="cls-1" x="271.26" y="244.87" width="4.82" height="6.41" transform="translate(-48.74 439.19) rotate(-78.25)"/><path class="cls-2" d="M276.79,251.8l-7.46-1.55,1.23-5.91,7.46,1.55Zm-6-2.49,5.09,1.06.74-3.54-5.09-1.06Z" transform="translate(-23.8 -26.31)"/><path class="cls-2" d="M32.8,388.21H31.59V353.4a4.89,4.89,0,0,1,4.61-5.12h3.61a4.89,4.89,0,0,1,4.61,5.12V357H43.21V353.4a3.69,3.69,0,0,0-3.4-3.91H36.2a3.69,3.69,0,0,0-3.4,3.91Z" transform="translate(-23.8 -26.31)"/><path class="cls-1" d="M89.89,412.28H42.19a12.55,12.55,0,0,1-12.28-9.95L27.62,391.5h76.84l-2.29,10.83A12.55,12.55,0,0,1,89.89,412.28Z" transform="translate(-23.8 -26.31)"/><path class="cls-2" d="M89.89,412.89H42.19a13.17,13.17,0,0,1-12.87-10.44L26.88,390.9h78.33l-2.44,11.55a13.17,13.17,0,0,1-12.88,10.44ZM28.37,392.11,30.5,402.2a12,12,0,0,0,11.69,9.48h47.7a11.94,11.94,0,0,0,11.69-9.48l2.14-10.09Z" transform="translate(-23.8 -26.31)"/><rect class="cls-3" x="0.6" y="362.67" width="83.25" height="4.91"/><path class="cls-2" d="M108.27,394.49H23.8v-6.12h84.47ZM25,393.28h82.05v-3.7H25Z" transform="translate(-23.8 -26.31)"/><polygon class="cls-1" points="18.39 392.25 16.13 392.25 17.23 385.97 21.69 385.97 18.39 392.25"/><path class="cls-2" d="M42.56,419.16H39.21l1.31-7.48h6ZM40.65,418h1.18l2.66-5.06h-3Z" transform="translate(-23.8 -26.31)"/><polygon class="cls-1" points="66.09 392.25 68.35 392.25 67.25 385.97 62.79 385.97 66.09 392.25"/><path class="cls-2" d="M92.87,419.16H89.53l-3.94-7.48h6ZM90.26,418h1.17l-.88-5.06h-3Z" transform="translate(-23.8 -26.31)"/><path class="cls-2" d="M47.84,363.74H39.57a1.46,1.46,0,0,1-1.08-2.44l4.22-4.64a1.45,1.45,0,0,1,1.09-.48,1.51,1.51,0,0,1,1.09.5l4,4.64a1.46,1.46,0,0,1-1.1,2.42Zm-4.05-6.35a.24.24,0,0,0-.19.09l-4.21,4.63a.25.25,0,0,0,.18.42h8.27a.23.23,0,0,0,.23-.15.24.24,0,0,0,0-.27L44,357.48a.29.29,0,0,0-.19-.09Z" transform="translate(-23.8 -26.31)"/><rect class="cls-1" x="14.29" y="335.95" width="11.45" height="2"/><path class="cls-2" d="M50.15,364.85H37.49v-3.2H50.15Zm-11.45-1.2H48.94v-.79H38.7Z" transform="translate(-23.8 -26.31)"/><rect class="cls-1" x="53.12" y="325.48" width="25.17" height="25.44"/><path class="cls-2" d="M102.7,377.83H76.32V351.18H102.7Zm-25.17-1.21h24V352.39h-24Z" transform="translate(-23.8 -26.31)"/><rect class="cls-1" x="50.15" y="323.55" width="30.51" height="3.19"/><path class="cls-2" d="M104.46,353.65H74a.6.6,0,0,1-.61-.6v-3.19a.61.61,0,0,1,1.21,0v2.58h29.3v-2.58a.61.61,0,0,1,1.21,0v3.19A.6.6,0,0,1,104.46,353.65Z" transform="translate(-23.8 -26.31)"/><rect class="cls-1" x="53.12" y="325.48" width="25.17" height="19.4"/><path class="cls-2" d="M102.7,371.79H76.32V351.18H102.7Zm-25.17-1.21h24V352.39h-24Z" transform="translate(-23.8 -26.31)"/><path class="cls-1" d="M71.72,349h0Z" transform="translate(-23.8 -26.31)"/><path class="cls-2" d="M106.51,349.6H71.72a.6.6,0,0,1-.6-.6.61.61,0,0,1,.6-.61h34.79a.61.61,0,0,1,.6.61A.6.6,0,0,1,106.51,349.6Z" transform="translate(-23.8 -26.31)"/><rect class="cls-1" x="125.39" y="344.87" width="44.84" height="47.38"/><path class="cls-2" d="M194.64,419.16h-46V370.58h46ZM149.79,418h43.64V371.79H149.79Z" transform="translate(-23.8 -26.31)"/><rect class="cls-1" x="125.39" y="344.87" width="44.84" height="9.67"/><path class="cls-2" d="M194.64,381.46h-46V370.58h46Zm-44.85-1.21h43.64v-8.46H149.79Z" transform="translate(-23.8 -26.31)"/><path class="cls-1" d="M184.62,394.74h-1.85a11.76,11.76,0,1,0,.15,7.62h1.7Z" transform="translate(-23.8 -26.31)"/><path class="cls-2" d="M171.72,411.14a12.37,12.37,0,1,1,11.47-17h1.43a.6.6,0,0,1,.6.6v7.62a.61.61,0,0,1-.6.61h-1.26A12.34,12.34,0,0,1,171.72,411.14Zm0-23.53a11.16,11.16,0,1,0,10.63,14.57.6.6,0,0,1,.57-.42H184v-6.42h-1.24a.61.61,0,0,1-.57-.39A11.18,11.18,0,0,0,171.72,387.61Z" transform="translate(-23.8 -26.31)"/><circle class="cls-1" cx="171.72" cy="398.77" r="9.34" transform="translate(-279.64 447.97) rotate(-76.72)"/><path class="cls-2" d="M171.72,408.72a10,10,0,1,1,9.95-10A10,10,0,0,1,171.72,408.72Zm0-18.69a8.74,8.74,0,1,0,8.74,8.74A8.75,8.75,0,0,0,171.72,390Z" transform="translate(-23.8 -26.31)"/><path class="cls-1" d="M173.81,376.46a2.2,2.2,0,1,1-2.2-2.2A2.2,2.2,0,0,1,173.81,376.46Z" transform="translate(-23.8 -26.31)"/><path class="cls-2" d="M171.61,379.26a2.8,2.8,0,1,1,2.8-2.8A2.81,2.81,0,0,1,171.61,379.26Zm0-4.4a1.6,1.6,0,1,0,1.6,1.6A1.6,1.6,0,0,0,171.61,374.86Z" transform="translate(-23.8 -26.31)"/><path class="cls-1" d="M171.72,372.94v0Z" transform="translate(-23.8 -26.31)"/><rect class="cls-2" x="147.31" y="346.03" width="1.21" height="2.53"/><rect class="cls-1" x="128.02" y="347.29" width="11.43" height="4.29"/><path class="cls-2" d="M163.86,378.49H151.22V373h12.64Zm-11.43-1.21h10.22v-3.07H152.43Z" transform="translate(-23.8 -26.31)"/><path class="cls-3" d="M191.84,376a1.32,1.32,0,1,1-1.32-1.32A1.32,1.32,0,0,1,191.84,376Z" transform="translate(-23.8 -26.31)"/><path class="cls-2" d="M190.52,377.94a1.92,1.92,0,1,1,1.93-1.92A1.92,1.92,0,0,1,190.52,377.94Zm0-2.64a.72.72,0,0,0-.71.72.72.72,0,0,0,1.43,0A.72.72,0,0,0,190.52,375.3Z" transform="translate(-23.8 -26.31)"/><path class="cls-3" d="M177.55,373.6h0Z" transform="translate(-23.8 -26.31)"/><rect class="cls-2" x="153.74" y="346.69" width="8.46" height="1.21"/><path class="cls-3" d="M177.55,375.74h0Z" transform="translate(-23.8 -26.31)"/><rect class="cls-2" x="153.74" y="348.83" width="8.46" height="1.21"/><path class="cls-3" d="M177.55,377.89h0Z" transform="translate(-23.8 -26.31)"/><rect class="cls-2" x="153.74" y="350.97" width="8.46" height="1.21"/><rect class="cls-3" x="134.39" y="327.72" width="4.45" height="17.15"/><path class="cls-2" d="M163.25,371.79h-5.66V353.43h5.66Zm-4.46-1.21H162V354.64h-3.25Z" transform="translate(-23.8 -26.31)"/><polygon class="cls-1" points="148.17 335.18 148.17 330.59 143.32 330.59 138.47 330.59 138.47 335.18 136.72 340.65 136.72 344.88 143.32 344.88 149.91 344.88 149.91 340.65 148.17 335.18"/><path class="cls-2" d="M174.32,371.79h-14.4v-4.93l1.74-5.47V356.3h10.92v5.09l1.74,5.47Zm-13.19-1.21h12v-3.53l-1.74-5.47v-4.07h-8.5v4.07l-1.74,5.47Z" transform="translate(-23.8 -26.31)"/><rect class="cls-1" x="138.46" y="330.59" width="9.7" height="3.07"/><path class="cls-2" d="M172.58,360.58H161.66V356.3h10.92Zm-9.71-1.21h8.5v-1.86h-8.5Z" transform="translate(-23.8 -26.31)"/><rect class="cls-1" x="136.72" y="340.65" width="13.03" height="4.23"/><path class="cls-2" d="M173.55,371.79h-13l-.61-.61V367l.61-.61h13l.61.61v4.22Zm-12.42-1.21H173v-3H161.13Z" transform="translate(-23.8 -26.31)"/><rect class="cls-1" x="326.75" y="356.08" width="67.7" height="35.83"/><path class="cls-2" d="M418.87,418.83H350v-37h68.92Zm-67.71-1.21h66.5V383h-66.5Z" transform="translate(-23.8 -26.31)"/><rect class="cls-1" x="326.75" y="356.08" width="9.01" height="35.83"/><path class="cls-2" d="M360.18,418.83H350v-37h10.23Zm-9-1.21H359V383h-7.81Z" transform="translate(-23.8 -26.31)"/><rect class="cls-1" x="385.45" y="356.08" width="9.01" height="35.83"/><path class="cls-2" d="M418.87,418.83H408.65v-37h10.22Zm-9-1.21h7.8V383h-7.8Z" transform="translate(-23.8 -26.31)"/><path class="cls-1" d="M355.07,382.39v0Z" transform="translate(-23.8 -26.31)"/><rect class="cls-2" x="330.66" y="355.48" width="1.21" height="37.04"/><path class="cls-1" d="M413.76,382.39v0Z" transform="translate(-23.8 -26.31)"/><rect class="cls-2" x="389.35" y="355.48" width="1.21" height="37.04"/><rect class="cls-1" x="322.8" y="348.83" width="76.28" height="7.25"/><path class="cls-2" d="M423.49,383H346v-8.47h77.49Zm-76.28-1.21h75.07v-6.05H347.21Z" transform="translate(-23.8 -26.31)"/><rect class="cls-1" x="335.77" y="356.08" width="8.9" height="3.96"/><path class="cls-2" d="M369.08,387H359v-5.16h10.11Zm-8.9-1.21h7.69V383h-7.69Z" transform="translate(-23.8 -26.31)"/><rect class="cls-1" x="344.67" y="356.08" width="8.9" height="3.96"/><path class="cls-2" d="M378,387H367.87v-5.16H378Zm-8.9-1.21h7.69V383h-7.69Z" transform="translate(-23.8 -26.31)"/><rect class="cls-1" x="353.57" y="356.08" width="8.9" height="3.96"/><path class="cls-2" d="M386.88,387H376.77v-5.16h10.11Zm-8.9-1.21h7.7V383H378Z" transform="translate(-23.8 -26.31)"/><rect class="cls-1" x="362.48" y="356.08" width="8.9" height="3.96"/><path class="cls-2" d="M395.79,387H385.68v-5.16h10.11Zm-8.91-1.21h7.7V383h-7.7Z" transform="translate(-23.8 -26.31)"/><rect class="cls-1" x="371.38" y="356.08" width="8.9" height="3.96"/><path class="cls-2" d="M404.69,387H394.58v-5.16h10.11Zm-8.9-1.21h7.69V383h-7.69Z" transform="translate(-23.8 -26.31)"/><rect class="cls-1" x="340.93" y="360.04" width="8.9" height="3.96"/><path class="cls-2" d="M374.25,390.91H364.13v-5.17h10.12Zm-8.91-1.21H373V387h-7.7Z" transform="translate(-23.8 -26.31)"/><rect class="cls-1" x="349.84" y="360.04" width="8.9" height="3.96"/><path class="cls-2" d="M383.15,390.91H373v-5.17h10.11Zm-8.9-1.21h7.69V387h-7.69Z" transform="translate(-23.8 -26.31)"/><rect class="cls-1" x="358.74" y="360.04" width="8.9" height="3.96"/><path class="cls-2" d="M392.05,390.91H381.94v-5.17h10.11Zm-8.9-1.21h7.69V387h-7.69Z" transform="translate(-23.8 -26.31)"/><rect class="cls-1" x="367.64" y="360.04" width="8.9" height="3.96"/><path class="cls-2" d="M401,390.91H390.84v-5.17H401Zm-8.9-1.21h7.69V387h-7.69Z" transform="translate(-23.8 -26.31)"/><rect class="cls-1" x="376.54" y="360.04" width="8.9" height="3.96"/><path class="cls-2" d="M409.86,390.91H399.74v-5.17h10.12ZM401,389.7h7.7V387H401Z" transform="translate(-23.8 -26.31)"/><rect class="cls-1" x="335.77" y="364" width="8.9" height="3.96"/><path class="cls-2" d="M369.08,394.87H359V389.7h10.11Zm-8.9-1.21h7.69v-2.75h-7.69Z" transform="translate(-23.8 -26.31)"/><rect class="cls-1" x="344.67" y="364" width="8.9" height="3.96"/><path class="cls-2" d="M378,394.87H367.87V389.7H378Zm-8.9-1.21h7.69v-2.75h-7.69Z" transform="translate(-23.8 -26.31)"/><rect class="cls-1" x="353.57" y="364" width="8.9" height="3.96"/><path class="cls-2" d="M386.88,394.87H376.77V389.7h10.11Zm-8.9-1.21h7.7v-2.75H378Z" transform="translate(-23.8 -26.31)"/><rect class="cls-1" x="362.48" y="364" width="8.9" height="3.96"/><path class="cls-2" d="M395.79,394.87H385.68V389.7h10.11Zm-8.91-1.21h7.7v-2.75h-7.7Z" transform="translate(-23.8 -26.31)"/><rect class="cls-1" x="371.38" y="364" width="8.9" height="3.96"/><path class="cls-2" d="M404.69,394.87H394.58V389.7h10.11Zm-8.9-1.21h7.69v-2.75h-7.69Z" transform="translate(-23.8 -26.31)"/><rect class="cls-1" x="340.93" y="367.95" width="8.9" height="3.96"/><path class="cls-2" d="M374.25,398.82H364.13v-5.16h10.12Zm-8.91-1.21H373v-2.74h-7.7Z" transform="translate(-23.8 -26.31)"/><rect class="cls-1" x="349.84" y="367.95" width="8.9" height="3.96"/><path class="cls-2" d="M383.15,398.82H373v-5.16h10.11Zm-8.9-1.21h7.69v-2.74h-7.69Z" transform="translate(-23.8 -26.31)"/><rect class="cls-1" x="358.74" y="367.95" width="8.9" height="3.96"/><path class="cls-2" d="M392.05,398.82H381.94v-5.16h10.11Zm-8.9-1.21h7.69v-2.74h-7.69Z" transform="translate(-23.8 -26.31)"/><rect class="cls-1" x="367.64" y="367.95" width="8.9" height="3.96"/><path class="cls-2" d="M401,398.82H390.84v-5.16H401Zm-8.9-1.21h7.69v-2.74h-7.69Z" transform="translate(-23.8 -26.31)"/><rect class="cls-1" x="376.54" y="367.95" width="8.9" height="3.96"/><path class="cls-2" d="M409.86,398.82H399.74v-5.16h10.12ZM401,397.61h7.7v-2.74H401Z" transform="translate(-23.8 -26.31)"/><rect class="cls-1" x="335.77" y="371.91" width="8.9" height="3.96"/><path class="cls-2" d="M369.08,402.78H359v-5.17h10.11Zm-8.9-1.21h7.69v-2.75h-7.69Z" transform="translate(-23.8 -26.31)"/><rect class="cls-1" x="344.67" y="371.91" width="8.9" height="3.96"/><path class="cls-2" d="M378,402.78H367.87v-5.17H378Zm-8.9-1.21h7.69v-2.75h-7.69Z" transform="translate(-23.8 -26.31)"/><rect class="cls-1" x="353.57" y="371.91" width="8.9" height="3.96"/><path class="cls-2" d="M386.88,402.78H376.77v-5.17h10.11Zm-8.9-1.21h7.7v-2.75H378Z" transform="translate(-23.8 -26.31)"/><rect class="cls-1" x="362.48" y="371.91" width="8.9" height="3.96"/><path class="cls-2" d="M395.79,402.78H385.68v-5.17h10.11Zm-8.91-1.21h7.7v-2.75h-7.7Z" transform="translate(-23.8 -26.31)"/><rect class="cls-1" x="371.38" y="371.91" width="8.9" height="3.96"/><path class="cls-2" d="M404.69,402.78H394.58v-5.17h10.11Zm-8.9-1.21h7.69v-2.75h-7.69Z" transform="translate(-23.8 -26.31)"/><rect class="cls-1" x="340.93" y="375.87" width="8.9" height="3.96"/><path class="cls-2" d="M374.25,406.74H364.13v-5.17h10.12Zm-8.91-1.21H373v-2.75h-7.7Z" transform="translate(-23.8 -26.31)"/><rect class="cls-1" x="349.84" y="375.87" width="8.9" height="3.96"/><path class="cls-2" d="M383.15,406.74H373v-5.17h10.11Zm-8.9-1.21h7.69v-2.75h-7.69Z" transform="translate(-23.8 -26.31)"/><rect class="cls-1" x="358.74" y="375.87" width="8.9" height="3.96"/><path class="cls-2" d="M392.05,406.74H381.94v-5.17h10.11Zm-8.9-1.21h7.69v-2.75h-7.69Z" transform="translate(-23.8 -26.31)"/><rect class="cls-1" x="367.64" y="375.87" width="8.9" height="3.96"/><path class="cls-2" d="M401,406.74H390.84v-5.17H401Zm-8.9-1.21h7.69v-2.75h-7.69Z" transform="translate(-23.8 -26.31)"/><rect class="cls-1" x="376.54" y="375.87" width="8.9" height="3.96"/><path class="cls-2" d="M409.86,406.74H399.74v-5.17h10.12ZM401,405.53h7.7v-2.75H401Z" transform="translate(-23.8 -26.31)"/><rect class="cls-1" x="335.77" y="379.82" width="8.9" height="3.96"/><path class="cls-2" d="M369.08,410.69H359v-5.16h10.11Zm-8.9-1.21h7.69v-2.74h-7.69Z" transform="translate(-23.8 -26.31)"/><rect class="cls-1" x="344.67" y="379.82" width="8.9" height="3.96"/><path class="cls-2" d="M378,410.69H367.87v-5.16H378Zm-8.9-1.21h7.69v-2.74h-7.69Z" transform="translate(-23.8 -26.31)"/><rect class="cls-1" x="353.57" y="379.82" width="8.9" height="3.96"/><path class="cls-2" d="M386.88,410.69H376.77v-5.16h10.11Zm-8.9-1.21h7.7v-2.74H378Z" transform="translate(-23.8 -26.31)"/><rect class="cls-1" x="362.48" y="379.82" width="8.9" height="3.96"/><path class="cls-2" d="M395.79,410.69H385.68v-5.16h10.11Zm-8.91-1.21h7.7v-2.74h-7.7Z" transform="translate(-23.8 -26.31)"/><rect class="cls-1" x="371.38" y="379.82" width="8.9" height="3.96"/><path class="cls-2" d="M404.69,410.69H394.58v-5.16h10.11Zm-8.9-1.21h7.69v-2.74h-7.69Z" transform="translate(-23.8 -26.31)"/><rect class="cls-1" x="340.93" y="383.78" width="8.9" height="3.96"/><path class="cls-2" d="M374.25,414.65H364.13v-5.17h10.12Zm-8.91-1.21H373v-2.75h-7.7Z" transform="translate(-23.8 -26.31)"/><rect class="cls-1" x="349.84" y="383.78" width="8.9" height="3.96"/><path class="cls-2" d="M383.15,414.65H373v-5.17h10.11Zm-8.9-1.21h7.69v-2.75h-7.69Z" transform="translate(-23.8 -26.31)"/><rect class="cls-1" x="358.74" y="383.78" width="8.9" height="3.96"/><path class="cls-2" d="M392.05,414.65H381.94v-5.17h10.11Zm-8.9-1.21h7.69v-2.75h-7.69Z" transform="translate(-23.8 -26.31)"/><rect class="cls-1" x="367.64" y="383.78" width="8.9" height="3.96"/><path class="cls-2" d="M401,414.65H390.84v-5.17H401Zm-8.9-1.21h7.69v-2.75h-7.69Z" transform="translate(-23.8 -26.31)"/><rect class="cls-1" x="376.54" y="383.78" width="8.9" height="3.96"/><path class="cls-2" d="M409.86,414.65H399.74v-5.17h10.12ZM401,413.44h7.7v-2.75H401Z" transform="translate(-23.8 -26.31)"/><rect class="cls-1" x="335.77" y="383.78" width="5.17" height="3.96"/><path class="cls-2" d="M365.34,414.65H359v-5.17h6.37Zm-5.16-1.21h3.95v-2.75h-3.95Z" transform="translate(-23.8 -26.31)"/><rect class="cls-1" x="380.28" y="379.82" width="5.17" height="3.96"/><path class="cls-2" d="M409.86,410.69h-6.38v-5.16h6.38Zm-5.17-1.21h4v-2.74h-4Z" transform="translate(-23.8 -26.31)"/><rect class="cls-1" x="335.77" y="387.74" width="8.9" height="3.96"/><path class="cls-2" d="M369.08,418.61H359v-5.17h10.11Zm-8.9-1.21h7.69v-2.75h-7.69Z" transform="translate(-23.8 -26.31)"/><rect class="cls-1" x="344.67" y="387.74" width="8.9" height="3.96"/><path class="cls-2" d="M378,418.61H367.87v-5.17H378Zm-8.9-1.21h7.69v-2.75h-7.69Z" transform="translate(-23.8 -26.31)"/><rect class="cls-1" x="353.57" y="387.74" width="8.9" height="3.96"/><path class="cls-2" d="M386.88,418.61H376.77v-5.17h10.11ZM378,417.4h7.7v-2.75H378Z" transform="translate(-23.8 -26.31)"/><rect class="cls-1" x="362.48" y="387.74" width="8.9" height="3.96"/><path class="cls-2" d="M395.79,418.61H385.68v-5.17h10.11Zm-8.91-1.21h7.7v-2.75h-7.7Z" transform="translate(-23.8 -26.31)"/><rect class="cls-1" x="371.38" y="387.74" width="8.9" height="3.96"/><path class="cls-2" d="M404.69,418.61H394.58v-5.17h10.11Zm-8.9-1.21h7.69v-2.75h-7.69Z" transform="translate(-23.8 -26.31)"/><rect class="cls-1" x="380.28" y="387.74" width="5.17" height="3.96"/><path class="cls-2" d="M409.86,418.61h-6.38v-5.17h6.38Zm-5.17-1.21h4v-2.75h-4Z" transform="translate(-23.8 -26.31)"/><rect class="cls-1" x="380.28" y="371.91" width="5.17" height="3.96"/><path class="cls-2" d="M409.86,402.78h-6.38v-5.17h6.38Zm-5.17-1.21h4v-2.75h-4Z" transform="translate(-23.8 -26.31)"/><rect class="cls-1" x="380.28" y="364" width="5.17" height="3.96"/><path class="cls-2" d="M409.86,394.87h-6.38V389.7h6.38Zm-5.17-1.21h4v-2.75h-4Z" transform="translate(-23.8 -26.31)"/><rect class="cls-1" x="380.28" y="356.08" width="5.17" height="3.96"/><path class="cls-2" d="M409.86,387h-6.38v-5.16h6.38Zm-5.17-1.21h4V383h-4Z" transform="translate(-23.8 -26.31)"/><rect class="cls-1" x="335.77" y="360.04" width="5.17" height="3.96"/><path class="cls-2" d="M365.34,390.91H359v-5.17h6.37Zm-5.16-1.21h3.95V387h-3.95Z" transform="translate(-23.8 -26.31)"/><rect class="cls-1" x="335.77" y="367.95" width="5.17" height="3.96"/><path class="cls-2" d="M365.34,398.82H359v-5.16h6.37Zm-5.16-1.21h3.95v-2.74h-3.95Z" transform="translate(-23.8 -26.31)"/><rect class="cls-1" x="335.77" y="375.87" width="5.17" height="3.96"/><path class="cls-2" d="M365.34,406.74H359v-5.17h6.37Zm-5.16-1.21h3.95v-2.75h-3.95Z" transform="translate(-23.8 -26.31)"/><path class="cls-1" d="M384.76,393.5h0a16.58,16.58,0,0,0-16.57,16.58V418h33.19v-7.92A16.58,16.58,0,0,0,384.76,393.5Z" transform="translate(-23.8 -26.31)"/><path class="cls-2" d="M401.94,418.61h-34.4v-8.53a17.2,17.2,0,0,1,17.18-17.18h0a17.2,17.2,0,0,1,17.18,17.18Zm-33.19-1.21h32v-7.32a16,16,0,0,0-16-16h0a16,16,0,0,0-16,16Z" transform="translate(-23.8 -26.31)"/><rect class="cls-1" x="332.32" y="345.57" width="14.57" height="2.94"/><path class="cls-2" d="M371.3,375.42H355.52v-4.15H371.3Zm-14.57-1.21h13.36v-1.73H356.73Z" transform="translate(-23.8 -26.31)"/><rect class="cls-1" x="331.37" y="339.21" width="14.57" height="2.94"/><path class="cls-2" d="M370.35,369.06H354.57v-4.15h15.78Zm-14.57-1.21h13.36v-1.73H355.78Z" transform="translate(-23.8 -26.31)"/><rect class="cls-1" x="329.81" y="342.28" width="14.57" height="2.94"/><path class="cls-2" d="M368.79,372.13H353V368h15.78Zm-14.57-1.21h13.36v-1.73H354.22Z" transform="translate(-23.8 -26.31)"/><path class="cls-1" d="M411.15,364.21l1.9-5.28h-6.38l1.9,5.28s-9.79,9.6.68,10.34v0h1.22v0C420.94,373.81,411.15,364.21,411.15,364.21Z" transform="translate(-23.8 -26.31)"/><path class="cls-2" d="M411.07,375.2h-2.42v-.09c-2.55-.28-4.11-1.16-4.64-2.61s0-3.4,1.64-5.74a22.87,22.87,0,0,1,2.22-2.7l-2.06-5.73h8.1l-2.06,5.73a22.87,22.87,0,0,1,2.22,2.7c1.63,2.34,2.18,4.27,1.64,5.74s-2.09,2.33-4.64,2.61ZM409.86,374H410l.46,0c2.36-.17,3.75-.8,4.15-1.87.81-2.21-2.51-6.12-3.85-7.44l-.28-.27,1.74-4.83h-4.66l1.74,4.83-.28.27c-1.34,1.32-4.66,5.23-3.85,7.44.4,1.07,1.79,1.7,4.15,1.87l.47,0h.1Z" transform="translate(-23.8 -26.31)"/><path class="cls-1" d="M409.86,353.11v0Z" transform="translate(-23.8 -26.31)"/><path class="cls-2" d="M409.86,359.54a.6.6,0,0,1-.6-.61v-5.82a.61.61,0,0,1,.6-.61.62.62,0,0,1,.61.61v5.82A.61.61,0,0,1,409.86,359.54Z" transform="translate(-23.8 -26.31)"/><path class="cls-3" d="M409.86,355.69s-4-3.62,0-8.36A6,6,0,0,1,409.86,355.69Z" transform="translate(-23.8 -26.31)"/><path class="cls-2" d="M409.88,356.53l-.42-.39a6.7,6.7,0,0,1-1.68-2.66c-.5-1.52-.64-3.88,1.62-6.54l.45-.54.47.54a6.44,6.44,0,0,1,1.58,6.43,7.48,7.48,0,0,1-1.61,2.75Zm0-8.22a5.12,5.12,0,0,0-.93,4.79,5.55,5.55,0,0,0,.91,1.67A5.18,5.18,0,0,0,409.86,348.31Z" transform="translate(-23.8 -26.31)"/><path class="cls-3" d="M410,355.58s-2.17-4.05,2.4-6.67A5.07,5.07,0,0,1,410,355.58Z" transform="translate(-23.8 -26.31)"/><path class="cls-2" d="M409.78,356.37l-.27-.5c0-.05-2.39-4.6,2.63-7.48l.61-.35.25.65a5.53,5.53,0,0,1-.6,5.68,6.3,6.3,0,0,1-2.11,1.76Zm2.33-6.53a4.16,4.16,0,0,0-1.78,4.86A4.31,4.31,0,0,0,412.11,349.84Z" transform="translate(-23.8 -26.31)"/><path class="cls-3" d="M409.68,355.58s2.16-4.05-2.4-6.67A5.07,5.07,0,0,0,409.68,355.58Z" transform="translate(-23.8 -26.31)"/><path class="cls-2" d="M409.94,356.37l-.52-.24a6.4,6.4,0,0,1-2.11-1.76,5.56,5.56,0,0,1-.6-5.68L407,348l.61.35c5,2.88,2.66,7.43,2.63,7.48Zm-2.33-6.53a4.27,4.27,0,0,0,1.77,4.86A4.17,4.17,0,0,0,407.61,349.84Z" transform="translate(-23.8 -26.31)"/><path class="cls-3" d="M384.62,417s-7.9.6-7.3-4.4.94-4.39,0-5.29,2.23-.4,2.43,1.2.59,4.09,1.14,3.09-1.24-5.89-.44-9.09,2.2-2,1.65-1.2-.25,4.8.65,4.9,1.5-9.1,1.7-9,1.7,2.6,1.7,9,2.8-.7,3.5-1.1-.5,3.4,0,3.8,1.3-1.41,1.6-.9S394.51,418.12,384.62,417Z" transform="translate(-23.8 -26.31)"/><path class="cls-2" d="M386.12,417.71c-.48,0-1,0-1.51-.08s-4.9.23-6.91-1.86a3.82,3.82,0,0,1-1-3.22c.17-1.4.32-2.35.42-3a6.61,6.61,0,0,0,.15-1.32s0-.07-.27-.29l-.14-.13c-.49-.45-.4-.85-.3-1s.45-.55,1.25-.42a3.64,3.64,0,0,1,2,1.12,13.63,13.63,0,0,1,0-5.05c.49-1.94,1.22-2.45,1.75-2.54a1,1,0,0,1,1,.47,1.23,1.23,0,0,1-.05,1.36,4.82,4.82,0,0,0-.14,2.05,7.47,7.47,0,0,0,.23,1.39,56.65,56.65,0,0,0,.84-5.74c.07-.63.13-1.17.19-1.57.08-.64.12-.93.43-1.1l.28-.15.29.14c.69.35,2,3.59,2,9.54a7.84,7.84,0,0,0,.16,1.92,14,14,0,0,0,1.32-2c.55-1,.8-1.38,1.12-1.56a.71.71,0,0,1,.78,0c.48.33.38,1,.17,2.29,0,.29-.1.69-.14,1,.3-.34.59-.65,1-.6a.75.75,0,0,1,.58.38c.34.55,1.58,4.81-.19,7.56C390.5,416.9,388.68,417.71,386.12,417.71Zm-1.49-1.3h.06c2.82.31,4.76-.25,5.76-1.68,1.25-1.8.77-4.6.43-5.83-.36.39-1,1-1.64.49-.44-.35-.41-1-.23-2.24-.83,1.42-1.57,2.55-2.47,2.3s-1-1.46-1-3.23a24.51,24.51,0,0,0-.79-6.85l0,.13c-.15,1.37-.35,3.07-.58,4.46-.33,2-.65,2.95-1.47,2.86a1.27,1.27,0,0,1-1-.85,8.6,8.6,0,0,1-.4-4.18,6.17,6.17,0,0,0-.28.88,15.79,15.79,0,0,0,.27,5.9c.29,1.79.44,2.76.11,3.34a.84.84,0,0,1-.92.52c-.6-.11-1-.72-1.35-3.84a1,1,0,0,0-.46-.65,1.14,1.14,0,0,0-.23-.15,4.36,4.36,0,0,1-.09,1.89c-.11.69-.25,1.62-.42,3a2.6,2.6,0,0,0,.66,2.23,5.9,5.9,0,0,0,3.57,1.41,14,14,0,0,0,2.42.08Z" transform="translate(-23.8 -26.31)"/><polygon class="cls-2" points="351.27 392.26 350.82 391.13 361 387.09 370.95 391.13 370.49 392.25 360.99 388.39 351.27 392.26"/><rect class="cls-1" x="222.52" y="327.34" width="61.85" height="49.4"/><path class="cls-2" d="M308.77,403.66h-63V353.05h63Zm-61.85-1.21h60.65V354.26H246.92Z" transform="translate(-23.8 -26.31)"/><rect class="cls-1" x="239.94" y="327.34" width="27" height="52.7"/><path class="cls-2" d="M291.35,407H263.14V353.05h28.21Zm-27-1.21h25.79V354.26H264.35Z" transform="translate(-23.8 -26.31)"/><rect class="cls-1" x="269.35" y="327.34" width="15.01" height="52.7"/><path class="cls-2" d="M308.77,407H292.55V353.05h16.22Zm-15-1.21h13.81V354.26H293.76Z" transform="translate(-23.8 -26.31)"/><rect class="cls-1" x="222.52" y="327.34" width="14.99" height="52.7"/><path class="cls-2" d="M261.91,407H245.72V353.05h16.19Zm-15-1.21H260.7V354.26H246.92Z" transform="translate(-23.8 -26.31)"/><path class="cls-2" d="M280.27,376.33a.58.58,0,0,1-.37-.13.6.6,0,0,1-.1-.85l6.58-8.47a.61.61,0,0,1,.85-.1.61.61,0,0,1,.11.85l-6.59,8.47A.62.62,0,0,1,280.27,376.33Z" transform="translate(-23.8 -26.31)"/><path class="cls-2" d="M278.58,383.9a.63.63,0,0,1-.37-.12.62.62,0,0,1-.11-.85l6.59-8.47a.61.61,0,0,1,.85-.11.61.61,0,0,1,.1.85l-6.58,8.47A.62.62,0,0,1,278.58,383.9Z" transform="translate(-23.8 -26.31)"/><path class="cls-2" d="M297.2,380.61a.6.6,0,0,1-.37-.13.61.61,0,0,1-.1-.85l6.58-8.47a.61.61,0,0,1,1,.74l-6.59,8.47A.58.58,0,0,1,297.2,380.61Z" transform="translate(-23.8 -26.31)"/><path class="cls-2" d="M250.09,400.15a.58.58,0,0,1-.37-.13.61.61,0,0,1-.1-.85l6.58-8.47a.61.61,0,0,1,1,.74l-6.59,8.47A.6.6,0,0,1,250.09,400.15Z" transform="translate(-23.8 -26.31)"/><rect class="cls-1" x="220.96" y="376.75" width="65.12" height="4.62"/><path class="cls-2" d="M310.5,408.28H244.16v-5.83H310.5Zm-65.13-1.21h63.92v-3.41H245.37Z" transform="translate(-23.8 -26.31)"/><path class="cls-3" d="M252.64,381.09s1.63,22.06,1.63,38.57l-9.79-.26V383.85S247.45,378.32,252.64,381.09Z" transform="translate(-23.8 -26.31)"/><path class="cls-2" d="M254.87,420.28l-11-.29v-36.3l.07-.13c0-.06,3.33-6,9-3l.29.16,0,.33c0,.22,1.62,22.27,1.62,38.62Zm-9.79-1.47,8.58.23c0-15.11-1.4-34.75-1.6-37.57a4.64,4.64,0,0,0-5.09.44,8.05,8.05,0,0,0-1.89,2.1Z" transform="translate(-23.8 -26.31)"/><path class="cls-3" d="M264.69,356.74s-5.12,34.5-20.21,37.3v-37.3Z" transform="translate(-23.8 -26.31)"/><path class="cls-2" d="M243.87,394.77V356.13h21.52l-.1.69a108.49,108.49,0,0,1-4.48,17.72,51.16,51.16,0,0,1-6.32,12.84c-3,4.15-6.3,6.59-9.9,7.26Zm1.21-37.43v36c3-.79,5.85-3,8.43-6.61a50.14,50.14,0,0,0,6.16-12.54,107.55,107.55,0,0,0,4.31-16.8Z" transform="translate(-23.8 -26.31)"/><path class="cls-3" d="M301.72,381.09s-1.62,22.06-1.62,38.57l9.79-.26V383.85S306.91,378.32,301.72,381.09Z" transform="translate(-23.8 -26.31)"/><path class="cls-2" d="M299.5,420.28v-.62c0-16.35,1.61-38.4,1.62-38.62l0-.33.29-.16c5.65-3,8.95,2.95,9,3l.08.13V420Zm2.8-38.81c-.2,2.82-1.56,22.46-1.59,37.57l8.58-.23V384C308.83,383.25,306.36,379.55,302.3,381.47Z" transform="translate(-23.8 -26.31)"/><path class="cls-3" d="M289.68,356.74s5.11,34.5,20.21,37.3v-37.3Z" transform="translate(-23.8 -26.31)"/><path class="cls-2" d="M310.5,394.77l-.72-.13c-3.6-.67-6.94-3.11-9.91-7.26a51.85,51.85,0,0,1-6.32-12.84,107.85,107.85,0,0,1-4.47-17.72l-.1-.69H310.5Zm-20.11-37.43a107.58,107.58,0,0,0,4.31,16.81,50.66,50.66,0,0,0,6.16,12.54c2.58,3.59,5.41,5.81,8.43,6.6v-36Z" transform="translate(-23.8 -26.31)"/><rect class="cls-3" x="218.24" y="327.07" width="70.6" height="9.23"/><path class="cls-2" d="M313.26,363.21H241.44V352.78h71.82ZM242.65,362h69.4v-8h-69.4Z" transform="translate(-23.8 -26.31)"/><path class="cls-2" d="M250.09,416.63a.61.61,0,0,1-.6-.59c0-.12-.36-12-1.26-25.25v-.15l.06-.14c2.15-4.92,4.28-22.21,4.31-22.38a.6.6,0,1,1,1.2.15c-.09.71-2.14,17.33-4.35,22.58.9,13.21,1.26,25,1.26,25.16a.6.6,0,0,1-.59.62Z" transform="translate(-23.8 -26.31)"/><rect class="cls-1" x="220.67" y="361.14" width="8.71" height="6.59"/><path class="cls-2" d="M253.79,394.65h-9.92v-7.81h9.92Zm-8.71-1.21h7.5v-5.39h-7.5Z" transform="translate(-23.8 -26.31)"/><path class="cls-2" d="M304.2,416.63h0a.6.6,0,0,1-.59-.62c0-.12.35-11.95,1.26-25.16-2.21-5.25-4.26-21.87-4.35-22.58a.6.6,0,1,1,1.2-.15c0,.17,2.16,17.46,4.31,22.38l.06.14v.15c-.9,13.24-1.26,25.13-1.26,25.25A.61.61,0,0,1,304.2,416.63Z" transform="translate(-23.8 -26.31)"/><rect class="cls-1" x="277.38" y="361.14" width="8.71" height="6.59"/><path class="cls-2" d="M310.5,394.65h-9.92v-7.81h9.92Zm-8.71-1.21h7.5v-5.39h-7.5Z" transform="translate(-23.8 -26.31)"/></svg>