<svg id="Layer_1" data-name="Layer 1" xmlns="http://www.w3.org/2000/svg" viewBox="0 0 60 60"><defs><style>.cls-1{fill:#fff;}.cls-2{fill:#414042;}.cls-3{fill:#e2344a;}</style></defs><rect class="cls-1" x="5.35" y="31.58" width="14.1" height="2.74"/><path class="cls-2" d="M19.8,34.66H5V31.22H19.8ZM5.7,34H19.1v-2H5.7Z"/><rect class="cls-2" x="17.69" y="33.96" width="0.7" height="14.35"/><rect class="cls-2" x="5" y="13.6" width="0.7" height="34.7"/><rect class="cls-1" x="5.35" y="13.96" width="1.22" height="10.61"/><path class="cls-2" d="M6.92,24.92H5V13.6H6.92Zm-1.22-.7h.52V14.31H5.7Z"/><rect class="cls-1" x="40.55" y="31.58" width="14.1" height="2.74"/><path class="cls-2" d="M55,34.66H40.2V31.22H55ZM40.9,34H54.3v-2H40.9Z"/><rect class="cls-2" x="41.61" y="33.96" width="0.7" height="14.35"/><rect class="cls-2" x="54.3" y="13.6" width="0.7" height="34.7"/><rect class="cls-1" x="53.43" y="13.96" width="1.22" height="10.61"/><path class="cls-2" d="M55,24.92H53.08V13.6H55Zm-1.22-.7h.52V14.31h-.52Z"/><rect class="cls-1" x="10.03" y="24.38" width="1.74" height="23.57"/><path class="cls-2" d="M12.13,48.31H9.68V24h2.45Zm-1.74-.71h1V24.73h-1Z"/><rect class="cls-1" x="48.26" y="24.38" width="1.74" height="23.57"/><path class="cls-2" d="M50.36,48.31H47.91V24h2.45Zm-1.75-.71h1V24.73h-1Z"/><rect class="cls-1" x="10.03" y="20.36" width="39.97" height="4.21"/><path class="cls-2" d="M50.36,24.92H9.68V20H50.36Zm-40-.7H49.65V20.71H10.39Z"/><polygon class="cls-3" points="14.07 20.42 30.21 31.17 45.84 20.42 14.07 20.42"/><path class="cls-2" d="M30.21,31.59,12.9,20.07H47Zm-15-10.82,15,10,14.5-10Z"/><path class="cls-1" d="M34.68,15.34a1.49,1.49,0,1,0,1.48-1.48A1.49,1.49,0,0,0,34.68,15.34Z"/><path class="cls-2" d="M36.16,17.18A1.84,1.84,0,1,1,38,15.34,1.83,1.83,0,0,1,36.16,17.18Zm0-3a1.14,1.14,0,1,0,1.14,1.13A1.14,1.14,0,0,0,36.16,14.21Z"/><circle class="cls-1" cx="37.65" cy="13.53" r="1.48"/><path class="cls-2" d="M37.65,15.37a1.84,1.84,0,1,1,1.83-1.84A1.85,1.85,0,0,1,37.65,15.37Zm0-3a1.13,1.13,0,1,0,1.13,1.13A1.13,1.13,0,0,0,37.65,12.4Z"/><circle class="cls-1" cx="38.48" cy="15.88" r="1.92"/><path class="cls-2" d="M38.48,18.15a2.27,2.27,0,1,1,2.27-2.27A2.27,2.27,0,0,1,38.48,18.15Zm0-3.83a1.56,1.56,0,1,0,1.57,1.56A1.56,1.56,0,0,0,38.48,14.32Z"/><path class="cls-1" d="M37.92,15.91h3.72s-.5,3.87-4.19,3.87-4.12-3.87-4.12-3.87Z"/><path class="cls-2" d="M37.45,20.13A4.13,4.13,0,0,1,33.7,18,5.64,5.64,0,0,1,33,16l0-.4H42l0,.4A6,6,0,0,1,41.23,18,4.21,4.21,0,0,1,37.45,20.13Zm-3.7-3.87a5.28,5.28,0,0,0,.57,1.42,3.43,3.43,0,0,0,3.13,1.75,3.51,3.51,0,0,0,3.18-1.77,4.88,4.88,0,0,0,.57-1.4Z"/></svg>