<svg id="Layer_1" data-name="Layer 1" xmlns="http://www.w3.org/2000/svg" viewBox="0 0 60 60"><defs><style>.cls-1{fill:#fff;}.cls-2{fill:#414042;}.cls-3{fill:#e2344a;}</style></defs><rect class="cls-1" x="10.53" y="21.48" width="38.95" height="17.29"/><path class="cls-2" d="M49.88,39.16H10.12V21.07H49.88Zm-38.95-.8H49.07V21.88H10.93Z"/><rect class="cls-3" x="9.5" y="30.19" width="18.59" height="12.16" rx="2.37"/><path class="cls-2" d="M25.73,42.75H11.87A2.77,2.77,0,0,1,9.1,40V32.56a2.77,2.77,0,0,1,2.77-2.77H25.73a2.77,2.77,0,0,1,2.77,2.77V40A2.77,2.77,0,0,1,25.73,42.75ZM11.87,30.59a2,2,0,0,0-2,2V40a2,2,0,0,0,2,2H25.73a2,2,0,0,0,2-2V32.56a2,2,0,0,0-2-2Z"/><rect class="cls-3" x="31.61" y="30.19" width="18.59" height="12.16" rx="2.37"/><path class="cls-2" d="M47.84,42.75H34A2.77,2.77,0,0,1,31.21,40V32.56A2.77,2.77,0,0,1,34,29.79H47.84a2.77,2.77,0,0,1,2.77,2.77V40A2.77,2.77,0,0,1,47.84,42.75ZM34,30.59a2,2,0,0,0-2,2V40a2,2,0,0,0,2,2H47.84a2,2,0,0,0,2-2V32.56a2,2,0,0,0-2-2Z"/><rect class="cls-1" x="5.4" y="38.76" width="49.19" height="8.88" rx="2.37"/><path class="cls-2" d="M52.23,48H7.77A2.77,2.77,0,0,1,5,45.27V41.13a2.77,2.77,0,0,1,2.77-2.77H52.23A2.77,2.77,0,0,1,55,41.13v4.14A2.77,2.77,0,0,1,52.23,48ZM7.77,39.16a2,2,0,0,0-2,2v4.14a2,2,0,0,0,2,2H52.23a2,2,0,0,0,2-2V41.13a2,2,0,0,0-2-2Z"/><rect class="cls-1" x="5.4" y="44.81" width="49.19" height="10.12"/><path class="cls-2" d="M55,55.34H5V44.41H55ZM5.81,54.53H54.19V45.21H5.81Z"/><polygon class="cls-1" points="8.77 38.76 10.53 48.64 50.94 38.76 8.77 38.76"/><path class="cls-2" d="M10.53,49a.4.4,0,0,1-.22-.06.39.39,0,0,1-.18-.27L8.37,38.83a.43.43,0,0,1,.09-.33.41.41,0,0,1,.31-.14H50.94a.4.4,0,0,1,.09.79L10.62,49ZM9.25,39.16l1.6,9,36.74-9Z"/><rect class="cls-1" x="7.6" y="13.21" width="44.8" height="2.2"/><path class="cls-2" d="M52.8,15.81H7.2v-3H52.8ZM8,15H52V13.61H8Z"/><rect class="cls-1" x="11.04" y="6.47" width="10.54" height="6.59"/><path class="cls-2" d="M22,13.46H10.64V6.07H22Zm-10.54-.8h9.74V6.87H11.44Z"/><rect class="cls-1" x="12.64" y="8.02" width="7.34" height="3.5"/><path class="cls-2" d="M20.39,11.93H12.24V7.62h8.15ZM13,11.12h6.54V8.43H13Z"/><rect class="cls-1" x="46.4" y="5.97" width="1.98" height="7.09"/><path class="cls-2" d="M48.78,13.46H46V5.57h2.78Zm-2-.8H48V6.37H46.8Z"/><rect class="cls-1" x="36.59" y="8.53" width="7.09" height="1.98" transform="translate(22.4 46.76) rotate(-77.86)"/><path class="cls-2" d="M40.67,13.67,38,13.08l1.66-7.72L42.33,6Zm-1.76-1.21,1.14.25,1.32-6.14-1.14-.25Z"/><rect class="cls-1" x="42.37" y="6.72" width="1.98" height="6.35"/><path class="cls-2" d="M44.75,13.46H42V6.31h2.78Zm-2-.8H44V7.12H42.77Z"/><rect class="cls-1" x="44.42" y="5.07" width="1.98" height="7.99"/><path class="cls-2" d="M46.8,13.46H44V4.66H46.8Zm-2-.8H46V5.47H44.82Z"/></svg>